<svg height="511pt" viewBox="-60 1 511 511.99975" width="511pt" xmlns="http://www.w3.org/2000/svg"><path d="m59.644531 176.933594c4.140625-.667969 6.957031-4.5625 6.292969-8.699219-1.441406-8.964844-1.929688-17.976563-1.523438-26.898437 29.28125-3.976563 56.808594-16.761719 78.773438-36.5625l42.398438 42.398437-87.859376 87.863281c-8.910156-9.972656-16.199218-21.132812-21.703124-33.273437-1.730469-3.816407-6.230469-5.507813-10.046876-3.777344-3.816406 1.730469-5.507812 6.230469-3.777343 10.046875 7.300781 16.097656 17.394531 30.652344 30.003906 43.261719 28.703125 28.703125 66.410156 43.058593 104.117187 43.058593 37.707032 0 75.410157-14.355468 104.117188-43.058593 57.410156-57.410157 57.410156-150.824219 0-208.234375s-150.824219-57.410156-208.234375 0c-33.316406 33.3125-48.738281 81.007812-41.253906 127.585937.664062 4.136719 4.5625 6.949219 8.695312 6.289063zm48.816407-128.351563c19.269531-17.191406 42.40625-27.75 66.425781-31.667969-4.058594 24.625-15.09375 47.691407-31.726563 66.363282zm-42.40625 77.15625c4.054687-24.480469 14.933593-47.617187 31.675781-66.421875l34.695312 34.695313c-18.675781 16.632812-41.746093 27.671875-66.371093 31.726562zm42.40625 120.03125 87.859374-87.863281 42.398438 42.402344c-19.789062 21.953125-32.570312 49.464844-36.554688 78.734375-33.375 1.464843-67.195312-9.628907-93.703124-33.273438zm186.453124-10.738281-34.699218-34.695312c18.675781-16.632813 41.742187-27.667969 66.367187-31.726563-3.921875 24.019531-14.476562 47.15625-31.667969 66.421875zm-10.734374 10.734375c-19.269532 17.191406-42.402344 27.75-66.421876 31.667969 4.058594-24.625 15.09375-47.691406 31.726563-66.363282zm44.011718-92.75c-29.269531 3.984375-56.78125 16.765625-78.738281 36.558594l-42.398437-42.402344 87.859374-87.855469c23.648438 26.503906 34.742188 60.328125 33.277344 93.699219zm-44.011718-104.433594-87.859376 87.859375-42.398437-42.402344c19.789063-21.953124 32.574219-49.464843 36.554687-78.734374 33.375-1.464844 67.199219 9.628906 93.703126 33.277343zm0 0"/><path d="m374.433594 313.648438h-259.070313c-4.195312 0-7.589843 3.394531-7.589843 7.589843 0 4.191407 3.394531 7.589844 7.589843 7.589844h259.070313c1.394531 0 2.527344 1.132813 2.527344 2.527344v38.457031c0 1.394531-1.132813 2.53125-2.527344 2.53125h-356.222656c-1.394532 0-2.53125-1.136719-2.53125-2.53125v-38.457031c0-1.394531 1.136718-2.527344 2.53125-2.527344h61.730468c4.191406 0 7.589844-3.398437 7.589844-7.589844 0-4.195312-3.398438-7.589843-7.589844-7.589843h-61.730468c-9.765626 0-17.710938 7.941406-17.710938 17.707031v38.457031c0 9.765625 7.945312 17.710938 17.710938 17.710938h9.265624l37.558594 83.128906-13.839844 30.628906c-1.726562 3.820312-.027343 8.316406 3.792969 10.042969 1.011719.460937 2.074219.675781 3.121094.675781 2.890625 0 5.652344-1.660156 6.917969-4.46875l8.335937-18.445312 8.332031 18.445312c1.269532 2.808594 4.03125 4.46875 6.921876 4.46875 1.046874 0 2.109374-.21875 3.121093-.675781 3.820313-1.726563 5.519531-6.222657 3.792969-10.042969l-13.839844-30.628906 32.65625-72.285156 32.65625 72.285156-13.839844 30.628906c-1.722656 3.820312-.027343 8.316406 3.792969 10.042969 1.015625.460937 2.074219.675781 3.121094.675781 2.890625 0 5.652344-1.660156 6.921875-4.46875l8.332031-18.445312 8.335938 18.445312c1.265625 2.808594 4.027343 4.46875 6.917969 4.46875 1.046874 0 2.109374-.21875 3.121093-.675781 3.820313-1.726563 5.519531-6.222657 3.792969-10.042969l-13.839844-30.628906 32.660156-72.285156 32.65625 72.285156-13.835937 30.628906c-1.726563 3.820312-.03125 8.316406 3.789063 10.042969 1.015624.457031 2.078124.675781 3.121093.675781 2.890625 0 5.652344-1.664062 6.921875-4.46875l8.332032-18.445312 8.335937 18.445312c1.265625 2.804688 4.027344 4.46875 6.921875 4.46875 1.042969 0 2.105469-.21875 3.117188-.675781 3.820312-1.726563 5.519531-6.222657 3.792968-10.042969l-13.839844-30.628906 32.65625-72.285156 32.660157 72.285156-13.839844 30.628906c-1.726563 3.820312-.027344 8.316406 3.792969 10.042969 1.011718.457031 2.074218.675781 3.117187.675781 2.890625 0 5.65625-1.664062 6.921875-4.46875l8.335938-18.445312 8.332031 18.445312c1.269531 2.804688 4.03125 4.46875 6.921875 4.46875 1.042969 0 2.105469-.21875 3.121094-.675781 3.820312-1.726563 5.515625-6.222657 3.789062-10.042969l-13.835937-30.628906 37.554687-83.128906h9.269532c9.765624 0 17.710937-7.945313 17.710937-17.710938v-38.457031c0-9.765625-7.945313-17.707031-17.707031-17.707031zm-330.296875 73.875h58.457031l-29.230469 64.691406zm81.96875 0h58.457031l-29.226562 64.691406zm81.972656 0h58.457031l-29.226562 64.691406zm111.199219 64.691406-29.226563-64.691406h58.457031zm0 0"/></svg>