<?xml version="1.0" encoding="utf-8"?>
<!-- Designed by Vexels.com - 2016 All Rights Reserved - https://vexels.com/terms-and-conditions/  -->

<svg version="1.1" id="Layer_1" xmlns="http://www.w3.org/2000/svg" xmlns:xlink="http://www.w3.org/1999/xlink" x="0px" y="0px"
	 width="1200px" height="1200px" viewBox="0 0 1200 1200" enable-background="new 0 0 1200 1200" xml:space="preserve">
<g>
	<path fill="#282143" d="M405.503,510.829c0,0,28.081-68.53,51.669-98.853c23.589-30.337,86.499-83.128,177.496-93.241
		c90.991-10.112,223.377,26.899,285.811,122.409c15.242,3.397,101.747-20.185,101.747-20.185l-13.477,52.791l134.804-29.209
		l-44.934,102.224c0,0,25.838,79.77-37.079,121.334c5.613,13.483-28.081,35.95-56.162,48.292
		c-28.088,12.368-29.209,20.225-29.209,20.225l113.451,31.465c0,0,39.335-10.112,47.19-4.499
		c-6.741,31.451-34.822,69.658-55.047,69.658c-5.613-11.24-5.613-11.24-5.613-11.24s-62.91,62.903-135.933,10.112
		c-5.613,23.595-3.364,33.694-3.364,33.694s-71.894-17.969-77.521-52.791c-37.072,30.324-149.402,89.87-241.521,65.146
		c-57.289-14.597-131.44-68.516-158.392-93.226c-22.467,24.71-110.095,99.968-176.368,97.725
		c-66.288-2.242-147.166-43.806-53.926-211.204c-47.184,3.384-47.184,3.384-47.184,3.384l64.031-67.402
		c0,0-104.467-35.95-125.813-43.82c-21.345-7.856-51.676-30.324-51.676-30.324s39.322-17.982,104.474-1.128
		c65.159,16.854,138.175,34.823,138.175,34.823l92.118-46.05L405.503,510.829z"/>
	<path fill="#FBBA33" d="M178.036,547.33c0,0,21.078,17.177,87.439,34.339c66.361,17.176,188.146,49.192,188.146,49.192
		l25.764-4.687L178.036,547.33z"/>
	<g>
		<path fill="#FFFFFF" d="M415.366,593.38c0,0,31.23-21.85,57.774-28.873c26.543-7.037,73.384-14.839,39.811,53.073
			c27.329-17.163,99.156-57.76,99.156-57.76s-36.696-45.284-161.609-21.863c-64.797,14.826-106.173,38.247-106.173,38.247
			L415.366,593.38z"/>
		<g>
			<path fill="#FFFFFF" d="M285.766,610.555l-49.957,37.482l60.888-13.268c0,0-91.339,85.867-79.629,168.633
				c11.717,77.286,113.981,74.157,205.328-23.434c-25.764,14.06-138.188,53.878-149.899,10.153
				c-11.71-43.713,60.902-135.059,91.347-156.143C346.668,626.953,285.766,610.555,285.766,610.555z"/>
			<g>
				<path fill="#FFFFFF" d="M366.96,719.078l-32.781,67.913l32.781-7.803l18.741-42.933l22.648-5.466l-15.618,42.154l31.224-9.374
					c0,0,31.23-78.844,46.842-120.219C394.289,656.618,366.96,719.078,366.96,719.078z M415.373,713.612l-18.741,3.129
					c7.81-21.863,32.788-39.818,32.788-39.818L415.373,713.612z"/>
				<path fill="#FFFFFF" d="M446.596,756.546c0.054,0,0.135-0.081,0.235-0.201C446.402,756.479,446.314,756.546,446.596,756.546z"/>
				<path fill="#FFFFFF" d="M536.372,629.303c0,0,3.908,1.558,14.839,10.139c-15.618,39.039-64.018,89.01-64.018,89.01
					l33.567-96.813l-28.102,6.245c0,0-41.712,113.21-45.827,118.461c3.142-1.021,24.945-5.896,60.661-16.196
					c53.086-40.584,81.187-124.906,81.187-124.906L536.372,629.303z"/>
				<path fill="#FFFFFF" d="M595.286,642.464c-17.995,26.402-44.411,87.223-45.606,87.626c-1.202,0.403,29.605-6.392,29.605-6.392
					l19.613-41.228l20.802-5.6l-14.007,39.214l30.417-7.601l47.608-117.641C645.311,594.843,613.295,616.049,595.286,642.464z
					 M629.706,658.861l-23.206,6.016c0,0,17.203-33.614,37.213-42.02L629.706,658.861z"/>
				<path fill="#FFFFFF" d="M749.744,642.464c-24.408,34.406-56.41,36.407-56.41,36.407l38.012-101.231l-31.619,8.407
					L654.51,703.688l79.233-20.815C733.743,682.873,738.544,671.673,749.744,642.464z"/>
				<path fill="#FFFFFF" d="M775.354,674.063c1.202,0.402,46.419-118.836,46.419-118.836l-28.403,5.6l-46.425,119.642
					C746.945,680.469,774.152,673.674,775.354,674.063z"/>
				<path fill="#FFFFFF" d="M863.78,649.259c0,0,8.809-16.397,15.618-35.212c-21.218,25.61-55.228,32.419-55.228,32.419
					l13.611-34.42l41.214-21.608l-31.612,2.404c0,0,5.204-14.007,14.007-37.213c24.005-9.198,34.406,9.199,34.406,9.199
					l11.61-32.015l-70.82,18.411l-45.62,118.447L863.78,649.259z"/>
				<path fill="#FFFFFF" d="M910.608,639.657c0,0,9.602-23.219,18.801-48.816c23.609,57.21,71.229,30.404,81.234,9.992
					c-20.009,7.614-46.815,2.404-55.221-22.803c36.011-17.995,41.214-68.423,41.214-68.423s-69.228,19.204-70.43,19.204
					L884.192,645.66L910.608,639.657z M948.217,535.217c0,0,12.409-2.001,20.809-4.405c-7.211,28.806-33.211,41.214-33.211,41.214
					L948.217,535.217z"/>
				<path fill="#FFFFFF" d="M1041.263,495.331c-33.225,12.53-41.087,47.419-23.528,64.958c17.552,17.552,49.232,47.245-12.832,75.46
					c-62.064,28.215-147.945,33.224-221.914,48.896c-73.983,15.672-107.838,31.975-124.759,51.408
					c30.096-15.055,94.033-35.736,237.592-50.145c39.496-16.935,55.793-21.944,60.809-21.944c5.016,0,45.767-1.88,45.767-1.88
					s68.329-20.064,73.338-67.711c0,0,4.472-24.508-17.35-45.136c-14.947-14.947-14.645-14.356-16.437-16.747
					c-1.8-2.39-10.77-15.847,4.183-22.723c14.94-6.876,31.753,4.284,36.507,11.267l11.912-28.846
					C1094.55,492.189,1074.487,482.789,1041.263,495.331z"/>
			</g>
		</g>
	</g>
	<path fill="#FBBA33" d="M894.117,722.127c0,0,24.119-37.105,63.534-42.195c26.442-2.323,57.041,7.413,78.374,7.413
		c0,0-22.252,12.53-38.488,18.09c-16.236,5.573-80.227,32.928-73.271,141.451c0,0-37.575-0.47-49.165-63.534
		c7.897,25.972,27.369,48.695,38.959,51.475c0,0-5.103-77.447,44.518-118.716c-18.546,9.266-50.542,35.695-56.108,85.787
		c-8.816-11.133-14.383-31.076-13.913-39.885C900.603,755.982,908.956,739.29,894.117,722.127z"/>
	<path fill="#FFFFFF" d="M901.644,737.571c0,0,27.718-43.726,76.42-52.079c-28.296,0-62.299,11.375-81.315,40.127
		C900.281,730.238,901.644,737.571,901.644,737.571z"/>
	<path fill="#FBBA33" d="M953.018,760.159l130.775,32.459c0,0,7.883-4.163,3.707-12.046
		c-12.516-2.323-130.776-33.399-130.776-33.399S948.842,756.452,953.018,760.159z"/>
	<path fill="#FBBA33" d="M948.385,780.571c0,0,51.932,33.386,119.642,22.709c-12.059,14.383-44.518,30.149-76.99,19.943
		C958.578,813.03,947.908,792.161,948.385,780.571z"/>
	<path fill="#FBBA33" d="M939.561,794.484c0,0,23.663,51.475,95.537,40.342c-10.207,7.883-64.461,16.692-97.39-27.826
		C937.708,801.427,939.561,794.484,939.561,794.484z"/>
	<path fill="#FBBA33" d="M1097.706,781.485c0,0-4.176,18.09-12.529,27.369c11.603-3.25,13.456-11.133,15.779-16.693
		c2.323-5.573,9.736-13.456,20.399-17.163C1110.692,776.852,1097.706,781.485,1097.706,781.485z"/>
	<g>
		<path fill="#C92224" d="M495.446,778.892c0,0,75.225,93.617,229.864,69.377c-44.304-24.24-71.888-67.697-71.888-67.697
			l-44.304,15.041l-2.497-7.521l18.385-51.824L495.446,778.892z"/>
		<path fill="#C92224" d="M670.141,768.029c0,0,42.638,56.833,75.232,76.897c26.737-7.521,101.969-50.159,112-64.354
			c0.833-16.72,0-16.72,0.833-16.72c0.84,0-106.153-30.095-106.153-30.095S686.861,754.653,670.141,768.029z"/>
		<path fill="#C92224" d="M442.581,490.94c0,0,30.713-66.448,68.322-87.774c7.527,18.183,5.016,39.496,5.016,39.496L442.581,490.94z
			"/>
		<path fill="#C92224" d="M523.439,393.148c0,0,11.912,25.704,13.174,41.362c17.553-9.401,41.376-15.658,41.376-15.658
			s10.018-48.279,18.801-64.582C579.238,363.052,543.51,374.333,523.439,393.148z"/>
		<path fill="#C92224" d="M615.605,349.26c0,0,33.218-8.152,59.546-7.521c-18.184,13.161-36.984,51.408-40.114,67.08
			c-16.303-1.262-39.502,5.009-39.502,5.009S604.311,368.692,615.605,349.26z"/>
		<path fill="#C92224" d="M657.599,405.677c0,0,8.152-47.016,54.537-62.688c39.495,4.391,115.982,29.464,172.406,106.575
			c-37.616,11.281-36.367,11.281-37.616,11.281C845.677,460.845,772.326,403.797,657.599,405.677z"/>
		<path fill="#C92224" d="M655.087,426.372c0,0,98.423-1.88,161.743,42.007c-68.329,14.41-125.376,30.082-125.376,30.082
			S658.854,459.596,655.087,426.372z"/>
		<path fill="#C92224" d="M631.27,428.252c0,1.88,16.296,60.808,37.616,77.097c-47.647,13.161-56.416,13.161-56.416,13.161
			l-23.2-7.507c0,0-2.511-54.536,4.392-73.983C619.983,429.501,631.27,428.252,631.27,428.252z"/>
		<path fill="#C92224" d="M575.478,440.15c0,1.894-5.64,67.08-5.64,67.08l-52.657-6.258l18.801-45.767L575.478,440.15z"/>
		<polygon fill="#C92224" points="511.528,467.116 500.878,502.221 450.102,506.612 		"/>
	</g>
	<g>
		<g>
			<path fill="#FFFFFF" d="M651.623,571.611c-2.297,1.154-6.587,1.154-6.587,1.154l10.025-29.235c0,0,3.156-2.283,6.876-2.86
				c3.727-0.578,3.727,0.577,2.86,2.86l10.321-3.143c0,0,4.29-7.171,2.008-7.171c-2.29,0-16.33,2.001-22.353,5.157
				c-6.016,3.156-9.736,5.157-12.321,12.033c-2.578,6.876-10.018,24.36-10.018,24.36s-1.733,3.721,5.15,3.721
				c6.876,0,13.759-2.284,18.338-4.297c4.586-2.002,8.877-2.578,9.172-8.3c-4.586,0.282-11.751,2.001-11.751,2.001
				S653.906,570.469,651.623,571.611z"/>
			<path fill="#FFFFFF" d="M700.338,527.482c0,0-10.032,3.156-10.898,3.156l-16.612,40.691l28.081-6.016l2.283-5.734l-16.323,4.297
				L700.338,527.482z"/>
			<path fill="#FFFFFF" d="M845.61,490.524c0,0-10.032,3.156-10.891,3.156l-16.612,40.691l28.081-6.029l2.283-5.721l-16.33,4.284
				L845.61,490.524z"/>
			<polygon fill="#FFFFFF" points="710.363,561.874 734.71,556.14 737.007,551.56 722.396,553.844 728.701,540.092 741.599,536.949 
				742.741,532.651 730.413,535.794 735.577,523.197 748.18,520.028 749.616,516.026 725.834,522.043 			"/>
			<polygon fill="#FFFFFF" points="810.653,504.276 823.264,501.133 824.687,497.118 800.903,503.134 785.433,542.965 
				809.794,537.231 812.083,532.651 797.472,534.935 803.777,521.183 816.67,518.027 817.811,513.73 805.496,516.886 			"/>
			<polygon fill="#FFFFFF" points="780.558,508.573 763.664,534.37 762.797,513.166 754.491,514.871 759.071,551.278 
				792.597,505.995 			"/>
			<path fill="#FFFFFF" d="M895.171,479.633c-6.305-0.282-16.048,2.015-21.494,5.157c-5.439,3.156-5.439,7.749-5.439,7.749
				l-13.188,33.224l11.173-3.142l5.734-14.625l8.017-1.705l-3.72,13.752l9.75-3.156l13.174-32.378
				C899.18,484.508,901.469,479.928,895.171,479.633z M883.131,499.414l-8.877,2.578l5.721-14.907c0,0,2.874-2.578,7.46-1.423
				C885.428,493.398,883.131,499.414,883.131,499.414z"/>
			<path fill="#FFFFFF" d="M935.573,469.037c0,0-6.581,14.383-7.145,15.913c0.282-1.463-4.042-13.335-4.042-13.335l-9.736,3.156
				l-15.471,40.396l10.314-2.578l10.609-30.364l3.424,14.611l-5.15,13.456l10.884-2.86l16.048-40.114L935.573,469.037z"/>
			<path fill="#FFFFFF" d="M978.547,458.441c-9.75,1.719-19.768,4.297-19.768,4.297l-16.048,40.677c0,0,16.034-2.86,26.933-7.735
				c4.875-2.578,8.017-6.016,9.743-12.892c1.719-6.876,6.305-20.346,6.305-20.346S988.291,456.709,978.547,458.441z
				 M974.827,466.458c0,0-4.874,13.752-8.03,21.487c-3.156,7.735-11.751,7.453-11.751,7.453l12.321-30.659
				C977.681,461.879,974.827,466.458,974.827,466.458z"/>
		</g>
	</g>
	<path fill="#FBBA33" d="M1092.227,763.583c0,0-84.31-22.642-107.731-28.887c0-2.35,41.376-20.305,52.3-26.55
		c10.932-6.245,36.696-18.734,33.58-39.818c60.11-45.271,35.118-120.999,35.118-120.999L1150,435.678l-135.059,31.237l17.956-53.1
		c0,0-110.86,26.55-112.417,27.329c0,0-79.637-146.77-266.996-133.488c-214.695,19.513-259.194,211.553-259.194,211.553
		c-32.002,8.595-89.782,43.725-89.782,43.725s-72.606-18.72-109.295-27.315C158.523,527.025,89.04,515.315,50,527.025
		c40.604,41.389,149.899,69.497,191.275,78.079c-37.475,27.315-78.065,81.18-78.065,81.18s27.315-7.024,56.202-8.581
		c-71.034,110.859-40.59,213.916,54.657,215.474c97.578,1.558,185.016-102.278,185.016-102.278
		c6.252,12.503,84.323,85.881,181.901,96.033c97.591,10.139,192.832-36.703,221.719-64.018
		c21.084,44.492,78.851,49.192,78.851,49.192s3.122-14.06,1.564-32.808c74.164,48.413,133.501-10.139,133.501-10.139
		s0,2.336,1.558,9.374c43.712,0,63.239-51.529,60.11-79.637C1117.998,755.768,1092.227,763.583,1092.227,763.583z M651.918,322.482
		c176.442-12.489,254.513,122.57,254.513,122.57l-291.203,71.82c0,0-82.758-39.804-201.427-3.908
		C413.802,512.965,447.375,341.216,651.918,322.482z M451.27,776.852c0,0-82.751,106.173-188.146,100.707
		c-105.394-5.466-71.813-153.014-21.849-213.124c-43.726,5.466-53.093,5.466-53.093,5.466s49.964-51.529,66.361-61.681
		c42.154,9.374,149.106,39.026,149.106,39.026l9.367-5.453c0,0-206.886-55.423-226.399-60.123
		c-19.513-4.674-96.799-27.316-114.754-49.958c0,0,56.981-6.245,138.961,14.839c81.979,21.071,281.835,71.82,281.835,71.82
		l2.344-7.037l-177.221-43.712c0,0,73.378-48.4,184.237-58.552c0,0,72.605-3.908,112.43,21.084
		c38.247-10.932,402.056-100.721,402.056-100.721l-17.962,52.321l131.93-29.679l-37.468,95.254c0,0,34.352,76.507-45.277,123.349
		c-11.717,1.557-35.131-5.466-49.185-9.374c-14.047-3.908-87.439-10.153-128.815,54.644c-23.421,3.129-113.982,7.816-156.922,21.862
		c-42.933,14.061-93.683,42.947-102.264,53.865c4.68-17.176,21.07-54.644,34.345-65.576
		C625.368,731.567,451.27,776.852,451.27,776.852z M660.949,876.685c-85.269,0.846-177.207-69.363-192.248-92.77l151.282-40.973
		c0,0-24.24,35.105-20.896,71.888c20.896-22.561,107.838-71.041,152.967-75.231c44.297,10.045,102.809,27.598,102.809,27.598
		s-0.833,30.927,2.511,39.281C827.279,829.038,768.767,876.685,660.949,876.685z M1084.733,828.205
		c-6.688-15.041-6.688-15.041-6.688-15.041s-36.783,40.96-81.087,36.783c-44.297-4.189-60.177-30.095-60.177-30.095l-2.511,41.792
		c0,0-75.224,3.344-69.376-101.137c-23.407-6.687-93.617-25.919-93.617-25.919c4.177,0,58.512-5.855,61.01-5.855
		c2.525,0,47.647,12.543,47.647,12.543s8.367-3.344,6.701-12.543c-9.199-0.819-13.375-1.665-13.375-1.665
		s18.385-37.616,62.681-50.991c44.303-13.376,56.007-8.353,75.238-2.498c19.217,5.855,38.448,5.855,48.466,3.344
		c-0.833,11.697-22.562,25.073-51.824,35.104c-29.243,10.032-42.625,26.738-42.625,26.738l127.055,35.95
		c0,0,20.896-10.032,41.792-7.52C1125.679,800.621,1108.973,824.862,1084.733,828.205z"/>
</g>
</svg>
