<?xml version="1.0" encoding="utf-8"?>
<!-- Designed by Vexels.com - 2016 All Rights Reserved - https://vexels.com/terms-and-conditions/  -->

<svg version="1.1" id="Layer_1" xmlns="http://www.w3.org/2000/svg" xmlns:xlink="http://www.w3.org/1999/xlink" x="0px" y="0px"
	 width="1200px" height="1200px" viewBox="0 0 1200 1200" enable-background="new 0 0 1200 1200" xml:space="preserve">
<g>
	<g>
		<path fill="#F8AA21" d="M896.423,598.747c0-186.774-147.251-338.187-328.901-338.187c-181.646,0-328.904,151.413-328.904,338.187
			c0,186.801,147.258,338.22,328.904,338.22C749.172,936.968,896.423,785.548,896.423,598.747z"/>
		<path fill="#281F22" d="M825.48,380.124c-7.194-12.003-105.629-123.233-256.87-123.634
			c-151.248-0.402-236.475,98.816-244.873,107.627c-8.406,8.797-20.001,26.009-20.001,26.009s-4.408,7.599-1.211,8.791
			c3.2,1.205,6.802-1.192,8.406-3.596c0,0,35.205-52.013,78.42-73.617c13.611,3.595,24.413,16.804,24.413,21.202
			c-22.412,12.801-58.427,39.219-65.225,45.619c-5.593,5.195-5.199,13.604,4.402,7.204c9.61-6.407,55.22-42.419,66.022-45.619
			c9.208,8.797,10.005,32.404,3.2,40.41c-4.8,5.209,0.405,10.806,6.404,3.2c6.002-7.605,10.806-36.407,1.202-48.411
			c13.206-8.408,53.221-21.604,62.015-24.409c7.2,20.4,26.412,76.824,26.412,76.824s3.2,8.402,7.602,7.197
			c4.402-1.198-1.205-8.803-1.205-12.399c0-3.602-22.405-73.222-22.405-73.222s33.615-8.804,47.614-9.601
			c-4.399,15.197,8.004,33.608,24.403,41.609c16.403,8.007,91.63,53.218,91.63,53.218s8.406,0-3.598-8.007
			c-12.001-7.994-83.224-51.209-83.224-51.209s-28.008-17.199-20.406-36.407c31.205-3.207,122.433-4.807,210.465,45.211
			c36.41,20.801,55.213,40.41,59.216,40.41C832.286,394.525,832.68,392.129,825.48,380.124z M423.765,338.107
			c-5.6-10.799-20.007-20.011-25.206-22.407c0,0,44.812-27.998,78.019-36.809c9.604,22.803,13.604,33.609,13.604,33.609
			S445.366,324.504,423.765,338.107z M549.8,300.489c-12.008,0.803-52.016,8.416-52.016,8.416l-9.999-32.417
			c41.214-13.597,82.82-8.804,82.82-8.804S553.801,286.095,549.8,300.489z M561.805,298.494c0,0,11.201-22.401,23.609-32.002
			c20.403,1.996,132.436,14.401,192.456,82.823C740.254,327.308,676.241,292.495,561.805,298.494z"/>
		<path fill="#281F22" d="M286.242,785.288c0,0,67.685,125.556,238.62,155.047c136.151,19.676,231.079-57.851,254.142-74.099
			c23.071-16.269,67.318-71.489,76.021-91.151c3.773-6.802,1.506-16.262-3.786-7.94c-5.292,8.308-51.437,102.854-161.481,141.443
			c-17.779-56.358-63.917-194.775-63.917-194.775s-5.674-6.039-3.782,1.138c1.894,7.183,60.512,195.893,60.512,195.893
			s-71.097,32.53-167.908,15.512c-35.928-37.445-99.466-118.366-121.78-211.405c0,0-2.266-7.559-4.914-6.809
			c-2.648,0.757-3.033,6.052-1.891,9.835c1.138,3.776,38.579,123.655,111.942,206.109c-18.91-3.796-121.014-26.484-208.751-146.738
			c0,0-3.779-7.191-5.677-2.263C281.703,779.985,286.242,785.288,286.242,785.288z"/>
	</g>
	<g>
		<path fill="#5D2A7D" d="M467.922,682.206c-4.412-0.978-7.833-3.421-8.078-10.276c-0.729-9.306,3.424-13.953,3.424-13.953
			s72.928-131.414,74.883-134.842c1.965-3.415,5.145-4.887,7.344-4.887c5.382-0.496,5.871-3.675,5.871-3.675
			c0.496-4.894-7.341-4.894-7.341-4.894s-52.856,0-59.956,0c-7.096,0-10.035,1.961-10.765,3.923c-0.733,1.955,1.47,3.91,6.36,4.15
			c11.013,0.984,6.608,8.57,6.608,8.57s-7.582,14.434-13.216,23.988c-5.624,9.54-10.762,9.045-10.762,9.045s-10.283,0-16.155,0
			c-5.875,0-2.206,4.164-2.206,4.164s5.145,0,13.952,0c8.81,0,4.161,7.592,4.161,7.592l-48.699,89.565
			c0,0-6.36,14.682-13.708,14.682c-7.338,0-4.891-8.804-4.891-8.804s18.11-135.578,20.062-147.087
			c1.958-11.502-4.891-9.533-4.891-9.533s-24.473,0-29.611,0c-5.136,0-7.093,3.415-7.093,3.415l-12.724,15.177
			c0,0-23.743,0-30.836,0c-7.097,0-0.241,3.18-0.241,3.18s11.743,0,20.309,0c8.56,0,4.643,4.9,4.643,4.9l-29.364,36.219
			c0,0-5.135,0-11.251,0c-6.119,0-1.229,3.669-1.229,3.669h8.814l-28.279,37.11c0,0-20.587,0-27.917,0
			c-7.338,0-2.26,4.505-2.26,4.505s13.818,0,20.021,0c6.206,0,2.822,3.95,2.822,3.95s-15.231,19.174-26.79,34.399
			c-11.562,15.23-19.168,19.462-29.89,22.006c-10.715,2.531-31.295,5.068-31.295,5.068s126.045-234.603,130.835-244.753
			c4.794-10.15,14.947-9.025,14.947-9.025s21.712,0,25.096,0c3.377,0,9.583-1.125,9.583-4.231s-9.299-3.106-9.299-3.106H230.176
			c-3.552-0.134-7.961-0.589-8.683,2.839c-0.981,4.646,6.607,4.894,6.607,4.894s14.431,0,27.901,0c13.457,0,9.293,7.833,9.293,7.833
			s0,0-2.45,5.376c-2.441,5.382-8.566,5.382-8.566,5.382s-38.911,0-45.519,0c-6.601,0-1.215,2.946-1.215,2.946s31.074,0,41.602,0
			c10.518,0,6.601,5.135,6.601,5.135s-2.691,4.158-5.871,10.036c-3.18,5.872-8.319,4.646-8.319,4.646s-10.765,0-18.354,0
			c-7.589,0-1.222,3.683-1.222,3.683s11.258,0,17.618,0c6.36,0,3.668,5.864,3.668,5.864s-9.788,16.644-12.727,22.508
			c-2.936,5.878-8.56,6.615-8.56,6.615s-1.958,0-8.566,0c-6.607,0-2.45,3.173-2.45,3.173s0,0,6.852,0
			c6.856,0,3.917,5.878,3.917,5.878s-6.119,11.99-9.788,19.335c-3.676,7.338-12.479,6.367-12.479,6.367s-37.448,0-45.034,0
			c-7.588,0-1.469,3.903-1.469,3.903s31.329,0,43.319,0c11.987,0,4.894,8.818,4.894,8.818s-15.422,29.123-19.817,37.19
			c-4.412,8.081-10.283,6.614-10.283,6.614s-37.441,0-46.248,0c-8.811,0-1.714,3.173-1.714,3.173s29.849,0,42.576,0
			c12.724,0,8.325,6.374,8.325,6.374s-6.856,11.743-10.769,19.576c-3.923,7.826-11.506,7.096-11.506,7.096s-7.588,0-15.174,0
			c-7.582,0-1.47,3.428-1.47,3.428s4.898,0,14.197,0c9.302,0,4.164,6.849,4.164,6.849s-10.042,17.621-14.692,26.92
			c-4.643,9.3-10.763,7.592-11.746,7.592c-0.974,0-65.58,0-73.413,0c-7.823,0-0.485,4.151-0.485,4.151s57.75,0,70.229,0
			c12.49,0,5.634,6.367,5.634,6.367s-3.917,6.856-7.83,15.164c-3.917,8.329-8.07,6.374-8.07,6.374s-11.023,0-17.624,0
			c-6.608,0-2.206,3.669-2.206,3.669s3.675,0,13.704,0c10.026,0,6.367,4.646,6.367,4.646s-1.473,2.691-6.122,11.013
			c-6.849,10.525-12.232,8.563-12.232,8.563s-28.397-0.234-34.014,0c-5.627,0.247-9.546-0.482-9.788,3.682
			c-0.254,4.157,5.131,3.91,5.131,3.91s208.751,0.247,218.047,0c2.685-0.736,34.02-58.246,34.02-58.246s145.601,0,152.457,0
			c6.856,0,13.464-1.473,13.464-4.405C474.289,684.408,472.323,683.183,467.922,682.206z M346.536,662.871
			c0,0-5.871,23.004-35.236,23.74c8.811-15.659,8.811-15.659,8.811-15.659s2.695-12.486-6.36-2.698
			c-9.058,9.795-36.223,46.743-59.716,59.216c-22.338,11.87-59.467,12.981-73.172,12.981s-9.3-10.531-6.608-15.178
			c2.692-4.639,19.576-34.017,19.576-34.017h83.941c0,0,8.319,1.225,7.586-5.128c-0.737-3.923-8.319-3.187-10.036-4.164
			c-1.71-0.984-17.125-8.57-4.891-24.47c12.235-15.914,29.364-37.933,29.364-37.933l52.86,0.489
			C352.656,621.268,346.536,662.871,346.536,662.871z M357.309,612.217h-52.368l64.606-85.654L357.309,612.217z"/>
		<path fill="#5D2A7D" d="M727.811,629.343c-4.649-0.73-8.807,4.9-8.807,4.9s-10.528,13.705-29.863,31.326
			c-19.335,17.614-45.512,20.306-56.284,18.839c-10.762-1.466-6.119-8.563-6.119-8.563s36.711-73.658,35.978-73.658
			c-0.736,0,2.203-0.241,15.418-0.241c15.908-0.254,10.766,22.749,9.055,28.868c-1.711,6.119,1.959,4.653,1.959,4.653
			s29.364-51.885,35.242-62.403c5.872-10.525-4.409-2.692-4.409-2.692s-0.977,2.933-13.456,13.209
			c-12.486,10.283-37.689,8.817-37.689,8.817s30.834-56.532,40.621-75.625c23.977-0.73,29.611,3.428,36.467,14.688
			c6.846,11.248,3.18,44.783,3.18,44.783h8.077c0,0,19.335-37.933,26.917-52.857c7.582-14.929-9.3-14.441-9.3-14.441
			s-194.069,0.053-194.795,0c-3.184-0.248-8.325,0.247-9.303,3.675c-0.98,3.421,2.206,4.646,6.116,4.646
			c3.913,0,8.322,0.73,9.3,7.338c0.98,6.608-4.898,12.239-4.898,12.239l-85.159,66.32c0,0,11.995,61.179,15.908,75.854
			C515.884,693.708,526.412,692,526.412,692s144.135,0,157.598,0c13.453,0,17.129-8.817,17.129-8.817s21.039-37.197,24.714-43.075
			C729.522,634.243,732.461,630.079,727.811,629.343z M611.083,597.294c-6.852,0.489-19.82,0.241-20.563,0.241
			c-0.727,0-5.383,3.435,0.247,3.917c5.627,0.496,18.602,0.241,18.602,0.241s5.624,0.736,1.714,7.096
			c-3.92,6.367-34.02,64.606-34.02,64.606s-4.154,8.81-11.502,8.81c-7.337,0-8.559-12.479-8.559-12.479l-16.154-90.053L619.649,518
			c0,0,5.627-4.399,16.396-4.399c10.765,0,9.293,0,10.765,0c1.47,0,11.997,1.466,9.547,7.826c-2.454,6.36-2.939,8.804-12.242,8.804
			c-9.299,0-12.231,0.254-12.231,0.254s-5.627,4.646,1.222,4.646c6.849,0,12.479,0,12.479,0s4.412-1.701-0.247,7.592
			c-4.65,9.293-24.711,47.226-24.711,47.226S617.931,596.806,611.083,597.294z"/>
		<path fill="#5D2A7D" d="M1144.081,641.34c-2.94,3.668-4.891,3.668-4.891,3.668s-2.454,0-9.547,0c-7.097,0-1.47,3.18-1.47,3.18
			s2.94,0,8.315,0c5.386,0,3.184,4.412,3.184,4.412c-7.097,14.434-23.733,34.988-23.733,34.988s-5.145,0-11.257,0
			c-6.119,0-0.248,2.691-0.248,2.691h9.546c-7.836,13.216-38.917,41.12-38.917,41.12s-9.051,0-17.859,0
			c-8.811,0-3.92,3.421-1.961,3.421c8.81,0.248,15.666,0.991,9.546,5.135c-49.435,30.348-75.13,26.184-101.561,13.959
			c-27.543-12.76-35.972-52.375-39.885-66.079c5.142-11.75,23-5.63,31.319-1.466c8.325,4.165,39.895,19.329,76.847,2.203
			c36.946-17.132,31.322-51.638,25.937-68.77c-5.38-17.126-31.081-40.377-40.87-56.043c-9.788-15.653-8.318-42.58,13.209-47.474
			c21.541-4.894,35.978,10.277,40.38,19.824c4.412,9.547,0,13.457-0.726,13.457c-0.737,0-1.477,0-5.875,0
			c-4.408,0-2.939,3.186-2.939,3.186s0.981-0.254,5.875,0c7.093,0.482,4.408,9.306,3.186,14.441
			c-1.232,5.135-0.984,8.563,1.948,9.788c2.943,1.225,4.171-3.18,4.171-3.18s22.756-42.586,27.646-50.667
			c4.897-8.074-2.447-5.865-11.01-3.669c-15.91,3.923-23.251-0.729-27.653-4.157c-4.405-3.428-18.849-12.232-49.194-8.322
			c-30.341,3.923-40.374,30.348-40.374,30.348s-0.729,0-7.097,0c-6.367,0-3.18,3.18-3.18,3.18s1.958,0,8.319,0
			c-10.277,22.521,0.488,45.03,0.488,45.03s-4.89,0-10.524,0c-5.627,0-1.463,3.91-1.463,3.91h13.457c0,0,6.608,8.811,12.239,15.666
			c5.63,6.856-0.248,6.614-0.248,6.614s-31.567,0-37.685,0c-6.116,0-2.206,4.64-2.206,4.64s24.473,0,48.217,0
			c20.798,17.373,20.55,40.136,20.55,40.136s-4.161,0-10.032,0c-5.875,0,0,4.653,0,4.653h8.318c0,0,2.203,11.75-11.746,21.296
			c-13.949,9.54-38.419,4.887-47.966-5.389c-9.547-10.276-4.161-39.654-1.955-46.496c2.203-6.856-2.206-1.962-2.206-1.962
			s-12.961,21.283-16.63,26.432c-3.682,5.135-5.634,6.119-5.634,6.119s-1.229,0-4.894,0c-3.675,0-1.958,2.443,0,2.203
			c4.891-0.241,1.222,7.096-5.145,14.434c-5.875-16.148-29.116-59.223-40.621-70.966c11.017-0.241,63.143-16.396,69.992-48.444
			c11.251-49.931-48.699-49.442-48.699-49.442h-84.918c-3.676-0.007-5.386,0.729-7.337,4.653c-1.959,3.91,7.826,4.15,7.826,4.15
			c12.727,0.248,9.299,10.532,9.299,10.532s-14.679,26.184-17.859,32.055c-3.18,5.871-7.103,5.135-7.103,5.135s-8.804,0-15.412,0
			c-6.607,0-2.454,3.668-2.454,3.668s4.65,0,11.746,0c7.097,0,5.63,4.412,5.63,4.412l-23.737,42.091c0,0-10.527,0-17.866,0
			c-7.341,0-1.958,4.158-1.958,4.158s2.939,0,11.016,0c8.078,0,4.158,5.63,4.158,5.63s-22.026,39.399-27.165,48.692
			c-5.138,9.3-12.235,8.576-16.396,8.576c-4.164,0-7.097-0.496-9.055,3.91c-1.959,4.405,6.36,4.405,6.36,4.405s65.59,0,71.703,0
			c6.119,0,11.505-0.482,11.505-4.158c0-3.675-4.891-4.398-4.891-4.398c-11.016-1.232-4.897-13.229-4.161-13.711
			c0.727-0.495,25.44-49.924,36.946-69.011c9.306-2.443,17.376,8.569,20.312,16.396c2.939,7.826,6.367,43.069,6.367,43.069
			s-23.5,0-31.818,0c-8.319,0-1.463,4.9-1.463,4.9h34.502c0,0,3.668,27.897,4.154,32.792c0.496,4.887-1.215,6.601-1.215,6.601
			s-26.676,0-34.994,0c-8.325,0-1.225,4.412-1.225,4.412h39.152c0,0,4.165,16.39,15.174,28.139
			c22.268,27.168,67.545,56.773,119.912,42.091c52.375-14.689,79.288-41.843,108.411-75.612
			c29.123-33.776,34.506-55.802,37.201-63.146C1151.91,632.034,1147.013,637.671,1144.081,641.34z M857.753,592.889
			c-4.402-4.894-13.209-9.547-14.43-10.276l32.296-60.944c0,0,1.717-4.639,8.325-4.893c6.601-0.241,17.866,6.119,12.968,26.672
			C892.021,564.007,872.686,589.214,857.753,592.889z"/>
		<path fill="#5D2A7D" d="M451.044,470.553l10.9-17.729c0,0,0,0-1.972,0c-10.608,14.093-30.599,12.881-30.599,12.881
			s16.513-33.635,18.786-36.815c2.266-3.18,5.306-1.814,6.361-4.091c1.058-2.269-2.876-2.879-3.475-2.879
			c-0.612,0-26.203-0.066-26.967,0c-4.696,0.455-3.337,4.245-1.824,4.245c4.399,0.294,2.126,5.757,1.824,6.206
			c-0.311,0.462-9.55,19.998-12.73,25.608c-3.18,5.604-5.299,8.02-8.482,8.777c-3.177,0.756-3.026,3.796-3.026,3.796H451.044z"/>
		<path fill="#5D2A7D" d="M920.363,457.98c-3.18,5.604-5.302,8.02-8.482,8.777c-3.18,0.756-3.032,3.796-3.032,3.796h51.199
			l10.913-17.729c0,0,0,0-1.972,0c-10.608,14.093-30.605,12.881-30.605,12.881s16.519-33.635,18.793-36.815
			c2.266-3.18,5.299-1.814,6.36-4.091c1.065-2.269-2.882-2.879-3.488-2.879c-0.599,0-26.19-0.066-26.957,0
			c-4.697,0.455-3.334,4.245-1.821,4.245c4.392,0.294,2.118,5.757,1.821,6.206C932.783,432.834,923.54,452.369,920.363,457.98z"/>
		<path fill="#5D2A7D" d="M519.503,466.911c7.88-6.514,21.36-24.838,7.113-39.533c-8.626-7.88-24.832-11.964-41.954-1.821
			c0,0-20.145,10.303-10.752,34.84C482.091,479.183,511.629,473.432,519.503,466.911z M499.508,430.403
			c8.175-5.604,15.147-4.539,15.753,3.18c0.609,7.726-3.485,19.844-10.3,26.512c-6.819,6.662-15.445,5.757-16.058-4.546
			C489.211,439.181,498.778,430.906,499.508,430.403z"/>
		<path fill="#5D2A7D" d="M538.881,467.219c2.732-2.276,5.614-3.487,10.301-0.308c4.7,3.18,24.296,10.324,35.905-2.718
			c12.265-13.791,0.381-22.053-5.299-25.608c-3.642-2.27-9.091-6.059-7.428-10.906c1.667-4.848,11.666-7.565,19.693,4.693
			c1.667,2.578,2.119,3.026,4.087-0.448c1.972-3.495,2.879-6.066,2.879-6.668c0-0.603,0.455-1.969-3.026-1.822
			c-3.485,0.147-5.607,0.764-9.697-2.269c-4.094-3.026-20.6-7.412-30.141,2.879c-9.547,10.303-4.242,21.35,3.334,24.992
			c7.572,3.636,13.784,9.092,9.239,12.573c-4.546,3.481-16.811,3.186-20.905-4.392c-1.369-2.725-1.516-3.937-1.667-4.7
			c-0.154-0.75-1.216-3.481-3.635-0.301c-0.271,0.368-6.213,12.579-6.213,12.579S536.16,469.495,538.881,467.219z"/>
		<path fill="#5D2A7D" d="M1056.97,452.216c-0.271,0.368-6.206,12.579-6.206,12.579s-0.154,4.7,2.568,2.423
			c2.738-2.276,5.613-3.487,10.307-0.308c4.696,3.18,24.296,10.324,35.898-2.718c12.265-13.791,0.391-22.053-5.299-25.608
			c-3.642-2.27-9.089-6.059-7.422-10.906c1.667-4.848,11.666-7.565,19.687,4.693c1.674,2.578,2.126,3.026,4.087-0.448
			c1.979-3.495,2.885-6.066,2.885-6.668c0-0.603,0.459-1.969-3.033-1.822c-3.474,0.147-5.6,0.764-9.694-2.269
			c-4.084-3.026-20.6-7.412-30.144,2.879c-9.54,10.303-4.235,21.35,3.337,24.992c7.575,3.636,13.782,9.092,9.236,12.573
			c-4.542,3.481-16.808,3.186-20.902-4.392c-1.366-2.725-1.513-3.937-1.66-4.7C1060.458,451.767,1059.397,449.035,1056.97,452.216z"
			/>
		<path fill="#5D2A7D" d="M614.011,470.701c3.173,0,20.145,0,20.902,0c0.76,0,3.183-0.309,4.392-2.725
			c1.211-2.43-0.302-2.731-2.273-2.731c-1.968,0-6.815-1.962-2.574-6.969c4.242-4.995,7.428-7.418,7.428-7.418h14.994
			c0,0,11.056,0.91,9.992,8.181c-0.77,5.302-2.266,6.668-4.242,6.963c-1.972,0.308-3.18,2.423-3.18,3.488s0.914,1.212,3.18,1.212
			c2.273,0,45.298,0,45.298,0s2.729-3.482-0.459-4.091c-3.18-0.609-4.693-3.173-1.972-7.572
			c2.732-4.392,12.272-22.723,12.272-22.723l19.392,34.238h9.393l23.934-41.509c0,0,2.718-3.635,7.418-3.334
			c0,0,2.728-3.642-1.513-3.642c-4.245,0-21.511,0-20.751,0c0.76,0-1.215,0.763-1.362,1.821c-0.158,1.058,0.603,1.674,2.875,1.975
			c2.273,0.302,8.784,2.122,4.847,8.777c-3.94,6.668-8.633,14.856-8.633,14.856l-16.815-24.242c0,0-1.968-3.187-5.908-3.187
			c-3.936,0-18.177,0-18.782,0c-0.603,0-3.79,0-3.79,1.673c0,1.667,0.455,1.969,2.729,2.122c2.273,0.147,2.273,1.815,0.606,5.456
			c-1.667,3.629-13.933,27.717-13.933,27.717s-1.215,2.872-4.094,2.571c-2.106-0.228-3.18-2.872-4.094-6.507
			c-0.901-3.642-9.992-33.033-9.992-33.033l-7.572-0.295l-29.387,23.781h-16.513c0,0-2.879,0-3.187,2.269
			c-0.298,2.284,1.061,2.43,3.639,2.578c2.581,0.154,8.787,0,8.787,0s-13.785,13.33-16.965,14.086
			c-3.18,0.757-5.754,0.455-6.36,0.455c-0.606,0-3.106,1.674-3.106,3.106C608.632,469.488,610.832,470.701,614.011,470.701z
			 M667.021,431.013l-0.298,14.394l-16.667-0.462L667.021,431.013z"/>
		<path fill="#5D2A7D" d="M787.593,471.309c7.726,2.417,14.395-0.609,18.786-3.943c4.392-3.334,6.206-2.423,7.873-0.596
			c1.667,1.808,4.238,3.475,7.127,3.93c2.872,0.461,3.632-2.122,3.632-2.122s6.058-14.24,8.479-19.837
			c2.427-5.61-2.273-3.943-2.273-3.943s-18.324,0-22.113,0c-3.786,0-2.577,2.879-0.298,3.18c3.786,0.455,4.087,9.54-0.154,13.176
			c-4.241,3.635-12.275,3.789-14.092-0.91c-2.574-8.175-0.753-23.928,15.605-31.051c16.353-7.124,21.052,5.007,21.052,5.007
			c1.366,2.417,2.729,1.513,2.729,1.513s3.026-5.757,4.847-8.783c1.824-3.033-1.061-2.43-3.029-2.276
			c-1.965,0.147-2.42,0.603-5.905-1.667c-4.546-3.033-36.507-10.758-50.744,9.54C762.923,455.61,779.868,468.879,787.593,471.309z"
			/>
		<path fill="#5D2A7D" d="M833.785,470.701c0,0,58.172-0.147,57.717,0c-0.459,0.147,7.873-10.444,8.787-12.573
			c0.914-2.122-1.211-0.757-7.12,3.334c-5.912,4.084-14.233,5.001-14.233,5.001h-14.699l7.572-15.599c0,0,3.947,0,7.127,0
			c3.173,0,4.087,1.212,5.748,3.019c1.667,1.822,3.946,0.462,3.946,0.462s3.632-7.277,5.748-11.964
			c2.126-4.699-1.968-1.821-1.968-1.821c-3.334,3.481-8.633,3.93-8.633,3.93h-9.694l9.089-18.773c0,0,1.211,0,10.454,0
			c9.239,0,11.97,6.816,14.079,8.938c2.125,2.116,3.799,1.366,3.799,1.366s1.506-1.219,4.237-7.284
			c2.729-6.059-5.299-6.508-5.912-6.508c-0.599,0-52.26-0.147-52.26-0.147c-3.639,0.596-4.991,3.896,0.308,4.244
			c4.693,0.295,1.814,6.045,1.814,6.045s-12.275,22.877-16.359,28.327c-4.093,5.456-5.761,6.829-8.934,6.976
			C831.217,467.821,833.785,470.701,833.785,470.701z"/>
		<path fill="#5D2A7D" d="M1034.937,470.701c-0.458,0.147,7.874-10.444,8.781-12.573c0.907-2.122-1.209-0.757-7.12,3.334
			c-5.901,4.084-14.233,5.001-14.233,5.001h-14.699l7.579-15.599c0,0,3.933,0,7.12,0c3.18,0,4.087,1.212,5.754,3.019
			c1.667,1.822,3.94,0.462,3.94,0.462s3.632-7.277,5.755-11.964c2.125-4.699-1.968-1.821-1.968-1.821
			c-3.335,3.481-8.633,3.93-8.633,3.93h-9.694l9.089-18.773c0,0,1.205,0,10.451,0c9.236,0,11.967,6.816,14.086,8.938
			c2.123,2.116,3.79,1.366,3.79,1.366s1.513-1.219,4.237-7.284c2.729-6.059-5.299-6.508-5.905-6.508
			c-0.606,0-52.261-0.147-52.261-0.147c-3.638,0.596-4.991,3.896,0.302,4.244c4.7,0.295,1.821,6.045,1.821,6.045
			s-12.275,22.877-16.362,28.327c-4.091,5.456-5.758,6.829-8.938,6.976c-3.18,0.147-0.606,3.026-0.606,3.026
			S1035.389,470.553,1034.937,470.701z"/>
	</g>
</g>
</svg>
