<svg xmlns="http://www.w3.org/2000/svg" xmlns:xlink="http://www.w3.org/1999/xlink" width="215" height="36" viewBox="0 0 215 36"><defs><clipPath id="a"><rect width="215" height="36" transform="translate(765 829)" fill="#fff"/></clipPath></defs><g transform="translate(-765 -829)" clip-path="url(#a)"><g transform="translate(853.75 828.25)"><path d="M34.942,17.677A16.194,16.194,0,0,0,20.5,1.579a1.743,1.743,0,0,0-.288-.231,2.872,2.872,0,0,0-3.128.15c-.054.026-.118.057-.188.093A16.059,16.059,0,0,0,12.851,2.6a4.2,4.2,0,0,0-.522-.637A4.143,4.143,0,0,0,6.174,7.492a16.2,16.2,0,0,0,6.243,25.1,2.75,2.75,0,0,0,.189,1.674.848.848,0,0,0-.375.55c-.375.513.538,1.164.913,1.452a2.1,2.1,0,0,0,1.777.463c.742-.031,1.439-.9,1.84-1.464.8-.113.951.012.976.112a4.218,4.218,0,0,0,1.076-.3c1.082-.455.776-1.014.663-1.114a.36.36,0,0,1-.076-.106,16.071,16.071,0,0,0,7.223-2.022,2.818,2.818,0,0,1,.236.3,6.5,6.5,0,0,1,.413,2.077,8.052,8.052,0,0,0,.438,1.915c.288.926.4.25.413,0s.062-1.152.024-1.8a7.64,7.64,0,0,1,.076-1.99.457.457,0,0,0-.163-.576c-.063-.075,0-.1-.163-.613a.848.848,0,0,1-.023-.089,16.372,16.372,0,0,0,2.323-1.93,16.086,16.086,0,0,0,4.743-11.45" fill="#231f20"/><path d="M34.942,17.677A16.194,16.194,0,0,0,20.5,1.579a1.743,1.743,0,0,0-.288-.231,2.872,2.872,0,0,0-3.128.15c-.054.026-.118.057-.188.093A16.059,16.059,0,0,0,12.851,2.6a4.2,4.2,0,0,0-.522-.637A4.143,4.143,0,0,0,6.174,7.492a16.2,16.2,0,0,0,6.243,25.1,2.75,2.75,0,0,0,.189,1.674.848.848,0,0,0-.375.55c-.375.513.538,1.164.913,1.452a2.1,2.1,0,0,0,1.777.463c.742-.031,1.439-.9,1.84-1.464.8-.113.951.012.976.112a4.218,4.218,0,0,0,1.076-.3c1.082-.455.776-1.014.663-1.114a.36.36,0,0,1-.076-.106,16.071,16.071,0,0,0,7.223-2.022,2.818,2.818,0,0,1,.236.3,6.5,6.5,0,0,1,.413,2.077,8.052,8.052,0,0,0,.438,1.915c.288.926.4.25.413,0s.062-1.152.024-1.8a7.64,7.64,0,0,1,.076-1.99.457.457,0,0,0-.163-.576c-.063-.075,0-.1-.163-.613a.848.848,0,0,1-.023-.089,16.372,16.372,0,0,0,2.323-1.93,16.086,16.086,0,0,0,4.743-11.45" fill="#061922"/><path d="M14.921,32.785a6.433,6.433,0,0,0,1.821-.376c.051.013.132.063.257.113a4.729,4.729,0,0,0-.351-1.614c-.1-.253-.187-.426-.3-.688a5.881,5.881,0,0,1-1.057-.369c0,.238.044.857.094,1.27a5.137,5.137,0,0,1-.513.025c.025.451.075,1.264.05,1.64" fill="#008248"/><path d="M14.921,32.785a6.433,6.433,0,0,0,1.821-.376c.051.013.132.063.257.113a4.729,4.729,0,0,0-.351-1.614c-.1-.253-.187-.426-.3-.688a5.881,5.881,0,0,1-1.057-.369c0,.238.044.857.094,1.27a5.137,5.137,0,0,1-.513.025C14.9,31.6,14.946,32.41,14.921,32.785Z" fill="none" stroke="#008248" stroke-width="0.046"/><path d="M26.247,31.459c-.112-.113.138-.463.25-1.114a3.319,3.319,0,0,0-.351-2.353,2.158,2.158,0,0,1-.382-.621,11.828,11.828,0,0,1-4.986,2.1.778.778,0,0,1-.063.1,4.488,4.488,0,0,1-1.151,1.026,6.578,6.578,0,0,1-1.051.426,5.636,5.636,0,0,0-.012,1.6c.038.112.5.388.663.688.017.031.032.062.047.092a15.631,15.631,0,0,0,7.068-1.914l-.032-.03" fill="#008248"/><path d="M26.247,31.459c-.112-.113.138-.463.25-1.114a3.319,3.319,0,0,0-.351-2.353,2.158,2.158,0,0,1-.382-.621,11.828,11.828,0,0,1-4.986,2.1.778.778,0,0,1-.063.1,4.488,4.488,0,0,1-1.151,1.026,6.578,6.578,0,0,1-1.051.426,5.636,5.636,0,0,0-.012,1.6c.038.112.5.388.663.688.017.031.032.062.047.092a15.631,15.631,0,0,0,7.068-1.914Z" fill="none" stroke="#008248" stroke-width="0.046"/><path d="M29.875,6.553a15.614,15.614,0,0,0-9.011-4.467A3.985,3.985,0,0,1,21.2,3.639c.488-.213.864-.325,1.064-.651a.357.357,0,0,1,.651-.025c.175.238.175.538-.288.826a7.59,7.59,0,0,1-.9.476c-.1.05-.012.137.1.325a3.205,3.205,0,0,1,.45,1.627c0,.009,0,.019,0,.029a11.981,11.981,0,0,1,7.241,16.646,1.491,1.491,0,0,1,.292.9,1.554,1.554,0,0,1-.063.7,6.976,6.976,0,0,1-.963,1.326.36.36,0,0,1-.488-.075c-.113-.162-.125-.075-.213.012s-.389.526-.464.638a.542.542,0,0,0-.162.676c.162.451.35.789.288,1.039s-.087.325.25.613a.636.636,0,0,1,.175.864,2.64,2.64,0,0,0-.3.9,15.726,15.726,0,0,0,2-23.934" fill="#008248"/><path d="M29.875,6.553a15.614,15.614,0,0,0-9.011-4.467A3.985,3.985,0,0,1,21.2,3.639c.488-.213.864-.325,1.064-.651a.357.357,0,0,1,.651-.025c.175.238.175.538-.288.826a7.59,7.59,0,0,1-.9.476c-.1.05-.012.137.1.325a3.205,3.205,0,0,1,.45,1.627c0,.009,0,.019,0,.029a11.981,11.981,0,0,1,7.241,16.646,1.491,1.491,0,0,1,.292.9,1.554,1.554,0,0,1-.063.7,6.976,6.976,0,0,1-.963,1.326.36.36,0,0,1-.488-.075c-.113-.162-.125-.075-.213.012s-.389.526-.464.638a.542.542,0,0,0-.162.676c.162.451.35.789.288,1.039s-.087.325.25.613a.636.636,0,0,1,.175.864,2.64,2.64,0,0,0-.3.9,15.726,15.726,0,0,0,2-23.934Z" fill="none" stroke="#008248" stroke-width="0.046"/><path d="M11.8,29.293a3.169,3.169,0,0,1,.188-1.737,12.089,12.089,0,0,1-1.7-1.417,11.953,11.953,0,0,1,.251-17.153.686.686,0,0,1,.083-.134A4.16,4.16,0,0,1,9.4,9.035a4.115,4.115,0,0,1-2.92-1.2,15.752,15.752,0,0,0,6.015,24.291,7.27,7.27,0,0,1,.324-1.1,2.178,2.178,0,0,0-.425-1.639,3.582,3.582,0,0,0-.588-.088" fill="#008248"/><path d="M11.8,29.293a3.169,3.169,0,0,1,.188-1.737,12.089,12.089,0,0,1-1.7-1.417,11.953,11.953,0,0,1,.251-17.153.686.686,0,0,1,.083-.134A4.16,4.16,0,0,1,9.4,9.035a4.115,4.115,0,0,1-2.92-1.2,15.752,15.752,0,0,0,6.015,24.291,7.27,7.27,0,0,1,.324-1.1,2.178,2.178,0,0,0-.425-1.639A3.582,3.582,0,0,0,11.8,29.293Z" fill="none" stroke="#008248" stroke-width="0.046"/><path d="M15.977,2.187a15.6,15.6,0,0,0-2.895.805,4.147,4.147,0,0,1-.337,4.344,11.9,11.9,0,0,1,2.785-1.18c.064-.062.128-.123.192-.178A3.273,3.273,0,0,1,15.3,3.113a2.116,2.116,0,0,1,.68-.925" fill="#008248"/><path d="M15.977,2.187a15.6,15.6,0,0,0-2.895.805,4.147,4.147,0,0,1-.337,4.344,11.9,11.9,0,0,1,2.785-1.18c.064-.062.128-.123.192-.178A3.273,3.273,0,0,1,15.3,3.113,2.116,2.116,0,0,1,15.977,2.187Z" fill="none" stroke="#008248" stroke-width="0.046"/><path d="M22.267,6.93a1.063,1.063,0,0,1,.588,1.264,4.542,4.542,0,0,1-.325.676c-.038.188-.432.507-.557.757a.829.829,0,0,0-.107.567,0,0,0,0,0,0,0,3.278,3.278,0,0,0,.9.526c.2.068.182.121.1.25.138.013.208.1.337.25s.5.063.726-.05a.559.559,0,0,1,.738.125,4.624,4.624,0,0,1,.726,1.264,6.383,6.383,0,0,0,.388.939c.05.075-.175,1.452-.238,2s-.113.788-.125.876.35-.313.363.163a18.638,18.638,0,0,0,.392,2.5c.052.229.105.437.159.607.15.025.275.325.363.788s.275.751.288.976.075.263.15.3.05.15-.175.413a1.994,1.994,0,0,1,.175.163c.063-.063.238-.263.238-.263s.688.275.838.326.329-.321.776-.125a.977.977,0,0,1,.354.39,11.7,11.7,0,0,0-7.06-16.078c0,.172-.014.334-.014.4" fill="#fff"/><path d="M25.884,26.615c-.175-.087-.289.04-.375-.651a1.218,1.218,0,0,0-.313-.588.576.576,0,0,1-.075-.563,2.377,2.377,0,0,0,.112-.851.666.666,0,0,1,.388-.713,1.085,1.085,0,0,1-.225-.45c-.513-.169-.616-.184-.72-.432a6.605,6.605,0,0,1-.334-1.357,3.5,3.5,0,0,1-.047-.451c-.165-.311-.529-1-.811-1.52-.1-.195-.2-.364-.265-.482-.251-.438,0-1.013.125-1.351a1.41,1.41,0,0,0,.112-.976,2.745,2.745,0,0,1-.138-.55c-.025-.138-.138-.313-.288.163s-.438,1.176-.6,1.9a4.9,4.9,0,0,0-.135,1.3,2.442,2.442,0,0,0,.222.944,4.456,4.456,0,0,1,.664,1.677,1.165,1.165,0,0,1-.138.45,13.213,13.213,0,0,1-.538,2.516,23.289,23.289,0,0,0-.939,2.465,15.954,15.954,0,0,1-.642,2.072,11.643,11.643,0,0,0,5.033-2.291c.042-.105.035-.2-.073-.257" fill="#fff"/><path d="M11.975,10.193a1.636,1.636,0,0,0,.556.466c.613.313.738.538.738,1.076a5.005,5.005,0,0,0,.275,1.827,1.962,1.962,0,0,0,.263-.325,3.623,3.623,0,0,0,1.089,1.3c.038.025.021.163.113.188.188.05,1.4.238,1.439.488a4.577,4.577,0,0,0,.726-1.089,6.37,6.37,0,0,1,.838-1.264,1.3,1.3,0,0,1,.013-.276,1.628,1.628,0,0,1-.426.351c-.2.087-.9.388-1.4.638-.175.088-.488.188-.613-.726a3.127,3.127,0,0,1,.088-1.6.441.441,0,0,1,.563-.313,9.1,9.1,0,0,0,.951.275c.025-.1.113-.288-.225-.325a1.926,1.926,0,0,1-1.223-.691,1.308,1.308,0,0,1-.254-.748c-.714.113-2.353.326-2.716.413s-.67.162-.788-.663c-.05-.351-.138-.838.112-.663a1.159,1.159,0,0,1,.964-.25.364.364,0,0,1,.235.158,1.17,1.17,0,0,1-.084.505c-.108.335-.319.576.363.419.714-.164,1.621-.3,1.858-.35a2.041,2.041,0,0,1,.469-.9,1.1,1.1,0,0,0,.288-.588c.013-.088-.07-.107-.188,0a1.147,1.147,0,0,1-.938.275c-.15-.038-.338-.325-.438-.488a4.292,4.292,0,0,1,.544-.768,11.575,11.575,0,0,0-3.688,1.978,3.067,3.067,0,0,0,.1.817,2.355,2.355,0,0,0,.4.849" fill="#fff"/><path d="M12.844,27.291a.972.972,0,0,1,1.314.338c.113.151.2.589,1.164.2a6.036,6.036,0,0,1-1.1-2.315c-.443-1.54-1.445-3.291-1.076-4.092-.213-.2-.463-.976-.726-.888-.177.059-.425.063-.225-.526a3.594,3.594,0,0,1,.519-.97,8.808,8.808,0,0,1,1.758-1.709c.075-.063.088-.113.038-.162a1.5,1.5,0,0,0-.263-.238.2.2,0,0,0-.25.05,2,2,0,0,1-.275.213c-.075.05-.676-.538-.989-.964a1.844,1.844,0,0,0-.738-.613c.125-.138.408-.436.3-.4a.77.77,0,0,1-.851-.25c-.413-.438-.25-.663-.338-.726a1.122,1.122,0,0,1-.876-.488c-.338-.525-.473-.754-.2-1.126a.556.556,0,0,0,.15-.513c-.038-.238,0-.388.313-.688s.5-.575.638-.55c.109.02-.207-.378-.4-.679a1.553,1.553,0,0,1-.114-.21,1.909,1.909,0,0,1-.146-.554,11.687,11.687,0,0,0,.013,16.515A11.831,11.831,0,0,0,12.15,27.33a.468.468,0,0,1,.694-.039" fill="#fff"/><path d="M6.193,2.609A4.141,4.141,0,0,1,8.326,4.164c.086.118.175.1.213.012a4.145,4.145,0,0,0,.225-1.251A3.521,3.521,0,0,1,9.171.97,3.923,3.923,0,0,0,6.193,2.609" fill="#a63732"/><path d="M6.193,2.609A4.141,4.141,0,0,1,8.326,4.164c.086.118.175.1.213.012a4.145,4.145,0,0,0,.225-1.251A3.521,3.521,0,0,1,9.171.97,3.923,3.923,0,0,0,6.193,2.609Z" fill="none" stroke="#a63732" stroke-width="0.046"/><path d="M5.574,5.829A2.559,2.559,0,0,0,8.226,4.765c.125-.162-.025-.263-.088-.35A4.017,4.017,0,0,0,6.033,2.86a3.929,3.929,0,0,0-.459,2.969" fill="#a63732"/><path d="M5.574,5.829A2.559,2.559,0,0,0,8.226,4.765c.125-.162-.025-.263-.088-.35A4.017,4.017,0,0,0,6.033,2.86a3.929,3.929,0,0,0-.459,2.969Z" fill="none" stroke="#a63732" stroke-width="0.046"/><path d="M13.221,5.754a2.444,2.444,0,0,0-2.467.575A3.438,3.438,0,0,0,9.477,8.818H9.39A3.905,3.905,0,0,1,6.746,7.793,7.113,7.113,0,0,0,10.028,5.9,6.663,6.663,0,0,0,11.843,3.05c.15-.576-.063-.238-.175.025a8.248,8.248,0,0,1-1.89,2.566,8.12,8.12,0,0,1-3.2,1.989,3.912,3.912,0,0,1-.893-1.451,4.133,4.133,0,0,0,2.293-.638A3.348,3.348,0,0,0,9.015,2.9,3.662,3.662,0,0,1,9.571.969a3.924,3.924,0,0,1,3.649,4.785" fill="#a63732"/><path d="M13.221,5.754a2.444,2.444,0,0,0-2.467.575A3.438,3.438,0,0,0,9.477,8.818H9.39A3.905,3.905,0,0,1,6.746,7.793,7.113,7.113,0,0,0,10.028,5.9,6.663,6.663,0,0,0,11.843,3.05c.15-.576-.063-.238-.175.025a8.248,8.248,0,0,1-1.89,2.566,8.12,8.12,0,0,1-3.2,1.989,3.912,3.912,0,0,1-.893-1.451,4.133,4.133,0,0,0,2.293-.638A3.348,3.348,0,0,0,9.015,2.9,3.662,3.662,0,0,1,9.571.969a3.924,3.924,0,0,1,3.649,4.785Z" fill="none" stroke="#a63732" stroke-width="0.046"/><path d="M13.112,6.147c-.188-.263-.857-.389-1.92.276-.1.062-.169.106-.05.225a3.9,3.9,0,0,1,.8,1.227,3.934,3.934,0,0,0,1.168-1.728" fill="#a63732"/><path d="M13.112,6.147c-.188-.263-.857-.389-1.92.276-.1.062-.169.106-.05.225a3.9,3.9,0,0,1,.8,1.227A3.934,3.934,0,0,0,13.112,6.147Z" fill="none" stroke="#a63732" stroke-width="0.046"/><path d="M11.629,8.118A5.46,5.46,0,0,0,11,6.892c-.115-.148-.138-.213-.351-.025a3.416,3.416,0,0,0-.945,1.939,3.9,3.9,0,0,0,1.92-.688" fill="#a63732"/><path d="M11.629,8.118A5.46,5.46,0,0,0,11,6.892c-.115-.148-.138-.213-.351-.025a3.416,3.416,0,0,0-.945,1.939A3.9,3.9,0,0,0,11.629,8.118Z" fill="none" stroke="#a63732" stroke-width="0.046"/><path d="M16.454,32.735c.081-.037.194-.088.244-.05s.35.251.538.413.25.213.1.3-.288.175-.263.1a.253.253,0,0,0-.038-.288c-.1-.1-.345-.29-.45-.376-.069-.056-.131-.1-.131-.1" fill="#ba9653"/><path d="M16.454,32.735c.081-.037.194-.088.244-.05s.35.251.538.413.25.213.1.3-.288.175-.263.1a.253.253,0,0,0-.038-.288c-.1-.1-.345-.29-.45-.376C16.517,32.779,16.454,32.735,16.454,32.735Z" fill="none" stroke="#ba9653" stroke-width="0.046"/><path d="M15.747,32.941a.149.149,0,0,0,0,.225c.075.075.494.425.563.494a.294.294,0,0,0,.282.069c.113-.025-.131.138-.225.156a.314.314,0,0,1-.3-.075l-.776-.732c-.113-.106.031-.106.131-.119s.188-.006.325-.019" fill="#ba9653"/><path d="M15.747,32.941a.149.149,0,0,0,0,.225c.075.075.494.425.563.494a.294.294,0,0,0,.282.069c.113-.025-.131.138-.225.156a.314.314,0,0,1-.3-.075l-.776-.732c-.113-.106.031-.106.131-.119S15.609,32.954,15.747,32.941Z" fill="none" stroke="#ba9653" stroke-width="0.046"/><path d="M15.046,29.738c.038.115.05.219-.125.194s-.913-.094-1.126-.094c-.05,0-.031-.125-.106-.075s-.044.163-.044.288-.01.2-.006.288c.006.132.088.313.425.332a1.632,1.632,0,0,0,.757-.088c.1-.069-.006-.181-.1-.181a4.6,4.6,0,0,1-.776,0c-.119-.044-.2-.181-.112-.238.1-.069.294.019.488.019a2.535,2.535,0,0,1,.451-.019c.05.031.119.019.119.256,0,.05.119.069.175.069s.081.094.075.219.006.15-.219.15-1.195-.012-1.339-.012c-.056,0-.063-.044-.069-.157s-.044-.895-.056-.957.15-.069.282-.044a3.867,3.867,0,0,0,.507.063c.213.012.538.044.538.044s.163.019.181-.031.069-.062.082-.025" fill="#ba9653"/><path d="M15.046,29.738c.038.115.05.219-.125.194s-.913-.094-1.126-.094c-.05,0-.031-.125-.106-.075s-.044.163-.044.288-.01.2-.006.288c.006.132.088.313.425.332a1.632,1.632,0,0,0,.757-.088c.1-.069-.006-.181-.1-.181a4.6,4.6,0,0,1-.776,0c-.119-.044-.2-.181-.112-.238.1-.069.294.019.488.019a2.535,2.535,0,0,1,.451-.019c.05.031.119.019.119.256,0,.05.119.069.175.069s.081.094.075.219.006.15-.219.15-1.195-.012-1.339-.012c-.056,0-.063-.044-.069-.157s-.044-.895-.056-.957.15-.069.282-.044a3.867,3.867,0,0,0,.507.063c.213.012.538.044.538.044s.163.019.181-.031S15.034,29.7,15.046,29.738Z" fill="none" stroke="#ba9653" stroke-width="0.046"/><path d="M10.554,12.511c-.163-.05-.288.138-.363.288a.524.524,0,0,0,.075.651c.238.338.386.539.8.513a.65.65,0,0,0,.438-.25c.063-.087.075.063-.025.213a.685.685,0,0,0,.013.738.791.791,0,0,0,1.089.138,2.07,2.07,0,0,0,.814-.826c.087-.163.087-.238,0-.338a2.825,2.825,0,0,1-.438-1.514c-.037-.563.063-.926-.288-1.126a2.21,2.21,0,0,1-1.251-1.6c-.037-.35-.013-.889-.363-.6a.912.912,0,0,0-.388.7,1.1,1.1,0,0,0,.288.7,7.257,7.257,0,0,0,.463.751c.138.113.225.2.338.213a6.123,6.123,0,0,1,.675.05c.113.038.175.175-.1.175a7.7,7.7,0,0,0-.888.1c-.188.025-.363.038-.45.413s-.213.813-.225.951-.087.213-.087.288.15.438.488.075a2.529,2.529,0,0,0,.538-.9c.063-.175.138-.15.075.125a2.508,2.508,0,0,0,.05,1.2.594.594,0,0,0,.789.338.6.6,0,0,1,.3-.088c.1.013-.019.188-.106.263s-.376.394-.882-.062a1.154,1.154,0,0,1-.338-.676.118.118,0,0,0-.213-.05c-.063.087-.4.4-.638.175s-.336-.35-.2-.826c.025-.087.073-.18.012-.2" fill="#f9b282"/><path d="M10.554,12.511c-.163-.05-.288.138-.363.288a.524.524,0,0,0,.075.651c.238.338.386.539.8.513a.65.65,0,0,0,.438-.25c.063-.087.075.063-.025.213a.685.685,0,0,0,.013.738.791.791,0,0,0,1.089.138,2.07,2.07,0,0,0,.814-.826c.087-.163.087-.238,0-.338a2.825,2.825,0,0,1-.438-1.514c-.037-.563.063-.926-.288-1.126a2.21,2.21,0,0,1-1.251-1.6c-.037-.35-.013-.889-.363-.6a.912.912,0,0,0-.388.7,1.1,1.1,0,0,0,.288.7,7.257,7.257,0,0,0,.463.751c.138.113.225.2.338.213a6.123,6.123,0,0,1,.675.05c.113.038.175.175-.1.175a7.7,7.7,0,0,0-.888.1c-.188.025-.363.038-.45.413s-.213.813-.225.951-.087.213-.087.288.15.438.488.075a2.529,2.529,0,0,0,.538-.9c.063-.175.138-.15.075.125a2.508,2.508,0,0,0,.05,1.2.594.594,0,0,0,.789.338.6.6,0,0,1,.3-.088c.1.013-.019.188-.106.263s-.376.394-.882-.062a1.154,1.154,0,0,1-.338-.676.118.118,0,0,0-.213-.05c-.063.087-.4.4-.638.175s-.336-.35-.2-.826C10.566,12.624,10.614,12.53,10.554,12.511Z" fill="none" stroke="#f9b282" stroke-linecap="round" stroke-width="0.046"/><path d="M10.8,11.811c-.054.161-.1.375-.125.45s-.138.238-.238.025a.422.422,0,0,1,.063-.538c.05-.05.125-.15.175-.1s.137.125.125.163" fill="#f9b282"/><path d="M10.8,11.811c-.054.161-.1.375-.125.45s-.138.238-.238.025a.422.422,0,0,1,.063-.538c.05-.05.125-.15.175-.1S10.816,11.773,10.8,11.811Z" fill="none" stroke="#f9b282" stroke-linecap="round" stroke-width="0.046"/><path d="M11.367,11.235c-.1.052-.323.051-.4.225-.05.113-.25-.013-.15-.15s.175-.125.238-.162.088-.15.213-.088.15.15.1.175" fill="#f9b282"/><path d="M11.367,11.235c-.1.052-.323.051-.4.225-.05.113-.25-.013-.15-.15s.175-.125.238-.162.088-.15.213-.088S11.417,11.21,11.367,11.235Z" fill="none" stroke="#f9b282" stroke-linecap="round" stroke-width="0.046"/><path d="M19.614,5.04a2.3,2.3,0,0,0-1,.476c-.325.225-1.5,1.214-1.777,1.414.288.15.363.451.263.951-.022.111,0,.15.075.075s.425-.451.413-.751a.917.917,0,0,0-.175-.513c-.025-.038.1-.188.238.125a1.171,1.171,0,0,1-.313,1.239,1.677,1.677,0,0,1-.913.563c-.175.087-.351.225-.188.488a.418.418,0,0,0,.6.075.927.927,0,0,1,.7-.15c.4.038.534-.217.263-.488-.087-.087-.313-.288-.038-.288.163,0,.363.363.476.463a1.354,1.354,0,0,0,.7.162c.338.025.863.15.863.475,0,.2-.108.258-.25.1-.056-.063-.137.036-.2.1a3.6,3.6,0,0,1-1.145.888c-.388.1-.532-.012-1.045-.288s-.989-.55-1.126-.638-.426-.288-.288.113A1.7,1.7,0,0,0,16.9,10.671a4.816,4.816,0,0,1,.926.375c.15.075.062.15-.138.125-.174-.022-.363-.175-.213.162a.894.894,0,0,0,1.064.613c.688-.087.708-.233,1.139-.951.075-.125.15-.038.1.288a3.29,3.29,0,0,1,.726-.263,1.67,1.67,0,0,0,1.064-.864,1.121,1.121,0,0,0,.238-.776c-.012-.126.175-.375.363-.551s.7-.838.438-1.314-.7-.238-.914.113a2.5,2.5,0,0,0-.463,1.339.316.316,0,0,0-.375.125c-.037.063-.588-.012-.776.038s-.25-.063-.05-.325a3.709,3.709,0,0,0,.863-1.927,1.106,1.106,0,0,1,.05-.413c.044-.207.063-.21-.194-.351-.167-.091-.177-.352-.206-.55s-.072-.214-.313-.163a.724.724,0,0,1-.613-.362" fill="#f9b282"/><path d="M19.614,5.04a2.3,2.3,0,0,0-1,.476c-.325.225-1.5,1.214-1.777,1.414.288.15.363.451.263.951-.022.111,0,.15.075.075s.425-.451.413-.751a.917.917,0,0,0-.175-.513c-.025-.038.1-.188.238.125a1.171,1.171,0,0,1-.313,1.239,1.677,1.677,0,0,1-.913.563c-.175.087-.351.225-.188.488a.418.418,0,0,0,.6.075.927.927,0,0,1,.7-.15c.4.038.534-.217.263-.488-.087-.087-.313-.288-.038-.288.163,0,.363.363.476.463a1.354,1.354,0,0,0,.7.162c.338.025.863.15.863.475,0,.2-.108.258-.25.1-.056-.063-.137.036-.2.1a3.6,3.6,0,0,1-1.145.888c-.388.1-.532-.012-1.045-.288s-.989-.55-1.126-.638-.426-.288-.288.113A1.7,1.7,0,0,0,16.9,10.671a4.816,4.816,0,0,1,.926.375c.15.075.062.15-.138.125-.174-.022-.363-.175-.213.162a.894.894,0,0,0,1.064.613c.688-.087.708-.233,1.139-.951.075-.125.15-.038.1.288a3.29,3.29,0,0,1,.726-.263,1.67,1.67,0,0,0,1.064-.864,1.121,1.121,0,0,0,.238-.776c-.012-.126.175-.375.363-.551s.7-.838.438-1.314-.7-.238-.914.113a2.5,2.5,0,0,0-.463,1.339.316.316,0,0,0-.375.125c-.037.063-.588-.012-.776.038s-.25-.063-.05-.325a3.709,3.709,0,0,0,.863-1.927,1.106,1.106,0,0,1,.05-.413c.044-.207.063-.21-.194-.351-.167-.091-.177-.352-.206-.55s-.072-.214-.313-.163A.724.724,0,0,1,19.614,5.04Z" fill="none" stroke="#f9b282" stroke-width="0.046"/><path d="M18.15,8.957c-.069.156-.258.306-.694.256-.219-.025-.433-.028-.469.144-.025.119-.125.113-.263.106s-.3-.044-.307.006a4.036,4.036,0,0,0,.82.513c.207.094.508.318.751.294.326-.031.609-.192,1.089-.7.2-.21.357-.319.169-.406a.955.955,0,0,0-.425-.075,1.356,1.356,0,0,1-.67-.137" fill="#f9b282"/><path d="M18.15,8.957c-.069.156-.258.306-.694.256-.219-.025-.433-.028-.469.144-.025.119-.125.113-.263.106s-.3-.044-.307.006a4.036,4.036,0,0,0,.82.513c.207.094.508.318.751.294.326-.031.609-.192,1.089-.7.2-.21.357-.319.169-.406a.955.955,0,0,0-.425-.075A1.356,1.356,0,0,1,18.15,8.957Z" fill="none" stroke="#f9b282" stroke-width="0.046"/><path d="M15.816,8.963c-.169-.006-.188-.131-.075-.319a1.611,1.611,0,0,1,.369-.476.4.4,0,0,0,.15.225.585.585,0,0,0-.207.5" fill="#f9b282"/><path d="M15.816,8.963c-.169-.006-.188-.131-.075-.319a1.611,1.611,0,0,1,.369-.476.4.4,0,0,0,.15.225.585.585,0,0,0-.207.5Z" fill="none" stroke="#f9b282" stroke-width="0.046"/><path d="M18.625,7.118c.031-.175.006-.319-.25-.113-.238-.175-.45-.388-.526-.438a.123.123,0,0,1-.025-.213c.088-.088.244.066.206-.194-.012-.087.194-.031.244-.056s-.023-.147.213-.087c.075.019.044-.125.194-.1s.225.081.257-.038S19,5.685,19.2,5.8c.131.081.181.031.194-.031s.131-.025.238.038a2.306,2.306,0,0,1,.682.557c.075.087.112.181.062.194s-.107,0-.119.1-.063.188-.119.075-.069.019-.112-.1-.1.044-.131-.037c-.041-.106-.079.018-.119-.075-.019-.044-.138.056-.176-.013s-.118.075-.181-.006-.062.088-.163.05-.056.094-.156.05-.069.125-.163.1-.087.019-.106.125a5.285,5.285,0,0,0-.056.619c.006.1.213.075.526.031a2.73,2.73,0,0,0,1.151-.45c.113-.094.213-.087.231-.056s-.031.132-.113.2a1.483,1.483,0,0,1-.776.382,5.763,5.763,0,0,1-.964.15c-.081-.019.031.119.175.087.076-.016.238.282.5.282a1.372,1.372,0,0,0,.62-.306c.087-.069.407-.213.194,0s-.438.444-.663.45a1.5,1.5,0,0,1-.807-.231c-.238-.162-.326-.25-.282-.5s.05-.3.063-.369" fill="#061922"/><path d="M18.625,7.118c.031-.175.006-.319-.25-.113-.238-.175-.45-.388-.526-.438a.123.123,0,0,1-.025-.213c.088-.088.244.066.206-.194-.012-.087.194-.031.244-.056s-.023-.147.213-.087c.075.019.044-.125.194-.1s.225.081.257-.038S19,5.685,19.2,5.8c.131.081.181.031.194-.031s.131-.025.238.038a2.306,2.306,0,0,1,.682.557c.075.087.112.181.062.194s-.107,0-.119.1-.063.188-.119.075-.069.019-.112-.1-.1.044-.131-.037c-.041-.106-.079.018-.119-.075-.019-.044-.138.056-.176-.013s-.118.075-.181-.006-.062.088-.163.05-.056.094-.156.05-.069.125-.163.1-.087.019-.106.125a5.285,5.285,0,0,0-.056.619c.006.1.213.075.526.031a2.73,2.73,0,0,0,1.151-.45c.113-.094.213-.087.231-.056s-.031.132-.113.2a1.483,1.483,0,0,1-.776.382,5.763,5.763,0,0,1-.964.15c-.081-.019.031.119.175.087.076-.016.238.282.5.282a1.372,1.372,0,0,0,.62-.306c.087-.069.407-.213.194,0s-.438.444-.663.45a1.5,1.5,0,0,1-.807-.231c-.238-.162-.326-.25-.282-.5S18.613,7.186,18.625,7.118Z" fill="none" stroke="#f9b282" stroke-width="0.046"/><path d="M22.267,7.906c-.145.1-.225.138-.238.313s-.047.474-.112.5c-.085.035-.074-.162-.1-.1-.037.087-.144.05-.175-.032-.013-.035-.326-.031-.075-.394a1.6,1.6,0,0,1,.563-.575c.163-.075.438.075.138.288" fill="#061922"/><path d="M22.267,7.906c-.145.1-.225.138-.238.313s-.047.474-.112.5c-.085.035-.074-.162-.1-.1-.037.087-.144.05-.175-.032-.013-.035-.326-.031-.075-.394a1.6,1.6,0,0,1,.563-.575C22.293,7.543,22.568,7.693,22.267,7.906Z" fill="none" stroke="#f9b282" stroke-width="0.046"/><path d="M28.393,22.779c-.058-.147.044-.394.357-.219s.551.326.325,1.014-.388,1.089-.475,1.377-.426.651-.313.162a4.441,4.441,0,0,0,.125-1.377c-.088-.551.089-.518.031-.77a1.352,1.352,0,0,0-.05-.188" fill="#f9b282"/><path d="M28.393,22.779c-.058-.147.044-.394.357-.219s.551.326.325,1.014-.388,1.089-.475,1.377-.426.651-.313.162a4.441,4.441,0,0,0,.125-1.377c-.088-.551.089-.518.031-.77A1.352,1.352,0,0,0,28.393,22.779Z" fill="none" stroke="#f9b282" stroke-linecap="round" stroke-width="0.046"/><path d="M29.576,23.374a1.849,1.849,0,0,1,.038,1.139,9.729,9.729,0,0,1-.788,1.114c-.175.175-.313.1-.2-.088a1.984,1.984,0,0,0,.263-.526.828.828,0,0,1,.138-.475,12.264,12.264,0,0,0,.438-1.327c.025-.075.088.088.112.163" fill="#f9b282"/><path d="M29.576,23.374a1.849,1.849,0,0,1,.038,1.139,9.729,9.729,0,0,1-.788,1.114c-.175.175-.313.1-.2-.088a1.984,1.984,0,0,0,.263-.526.828.828,0,0,1,.138-.475,12.264,12.264,0,0,0,.438-1.327C29.488,23.136,29.551,23.3,29.576,23.374Z" fill="none" stroke="#f9b282" stroke-linecap="round" stroke-width="0.046"/><path d="M26.347,25.689a3.38,3.38,0,0,0-.238-.738,2.189,2.189,0,0,1,.989-1.239c.063-.025.1-.088.075-.138s.075-.088.125.087.138.676.138.676a.937.937,0,0,1-.05.351,2.3,2.3,0,0,0-.05.663c.038.175.1.3.451.225.175-.038.163-.088.213-.238s.188-.576.238-.814a3.032,3.032,0,0,0-.044-.969c-.05-.151.019-.657-.019-.757s-.063-.25-.375-.351-.4-.125-.613.088-.288.3-.388.4-.351.012-.138-.188.413-.4.475-.463l-.062-.163H26.96a2.326,2.326,0,0,1-1.089.6c-.113.024-.325.038-.175.238.038.05.05.187.138.138s.225-.276.351-.175-.025.338-.175.45a4.284,4.284,0,0,1-.425.288.283.283,0,0,0-.163.326,2.045,2.045,0,0,1-.088.838.48.48,0,0,0,.05.538,1.862,1.862,0,0,1,.313.651c.05.3.075.375.275.351a.418.418,0,0,0,.351-.238" fill="#f9b282"/><path d="M26.347,25.689a3.38,3.38,0,0,0-.238-.738,2.189,2.189,0,0,1,.989-1.239c.063-.025.1-.088.075-.138s.075-.088.125.087.138.676.138.676a.937.937,0,0,1-.05.351,2.3,2.3,0,0,0-.05.663c.038.175.1.3.451.225.175-.038.163-.088.213-.238s.188-.576.238-.814a3.032,3.032,0,0,0-.044-.969c-.05-.151.019-.657-.019-.757s-.063-.25-.375-.351-.4-.125-.613.088-.288.3-.388.4-.351.012-.138-.188.413-.4.475-.463l-.062-.163H26.96a2.326,2.326,0,0,1-1.089.6c-.113.024-.325.038-.175.238.038.05.05.187.138.138s.225-.276.351-.175-.025.338-.175.45a4.284,4.284,0,0,1-.425.288.283.283,0,0,0-.163.326,2.045,2.045,0,0,1-.088.838.48.48,0,0,0,.05.538,1.862,1.862,0,0,1,.313.651c.05.3.075.375.275.351a.418.418,0,0,0,.351-.238Z" fill="none" stroke="#f9b282" stroke-linecap="round" stroke-width="0.046"/><path d="M26.422,26.265a1.35,1.35,0,0,0-.238.6c0,.213-.213.438-.188.538s.3.363.463.639a2.519,2.519,0,0,1,.375,1.376,9.46,9.46,0,0,1-.25,1.752.321.321,0,0,0,.1.4,1.947,1.947,0,0,1,.6,1.239,4.848,4.848,0,0,0,.238,1.164c.05.037.037.1.037.237a4.819,4.819,0,0,0,.213,1.076c.088.151.075-.851.063-1.139a17.723,17.723,0,0,1,.063-1.865.742.742,0,0,0-.075-.675,1.476,1.476,0,0,1-.25-1.414c.225-.726.588-.713.476-1a2.079,2.079,0,0,0-.463-.651c-.15-.163-.03-.55-.038-.713-.012-.3-.25-.35-.275-.688a1.218,1.218,0,0,1,.2-.951c.25-.338-.088-.325-.2-.538a1.3,1.3,0,0,1-.075-.939c.05-.225.025-.288-.038-.313s-.325-.075-.325-.075l-.388.776a1.54,1.54,0,0,1,.088.525" fill="#a63732"/><path d="M26.422,26.265a1.35,1.35,0,0,0-.238.6c0,.213-.213.438-.188.538s.3.363.463.639a2.519,2.519,0,0,1,.375,1.376,9.46,9.46,0,0,1-.25,1.752.321.321,0,0,0,.1.4,1.947,1.947,0,0,1,.6,1.239,4.848,4.848,0,0,0,.238,1.164c.05.037.037.1.037.237a4.819,4.819,0,0,0,.213,1.076c.088.151.075-.851.063-1.139a17.723,17.723,0,0,1,.063-1.865.742.742,0,0,0-.075-.675,1.476,1.476,0,0,1-.25-1.414c.225-.726.588-.713.476-1a2.079,2.079,0,0,0-.463-.651c-.15-.163-.03-.55-.038-.713-.012-.3-.25-.35-.275-.688a1.218,1.218,0,0,1,.2-.951c.25-.338-.088-.325-.2-.538a1.3,1.3,0,0,1-.075-.939c.05-.225.025-.288-.038-.313s-.325-.075-.325-.075l-.388.776a1.54,1.54,0,0,1,.088.525Z" fill="none" stroke="#a63732" stroke-width="0.046"/><path d="M22.806,11.035a10.15,10.15,0,0,0-1.014,2.1,5.7,5.7,0,0,0-.375,3.229c.363,1.026,1.076.375,1.239-.013s.413-1.051.488-1.227.113-.276.251.138a12.122,12.122,0,0,1,.338,1.489,6.31,6.31,0,0,1-.288.726c-.15.388-.238.663-.088.9s.738,1.252.926,1.689c.113.263.213.313.513.238a11,11,0,0,0,1.239-.426c.213-.1.112-.276.05-.488-.095-.324-.475-2.128-.475-2.365s.064-.55-.25-.2c-.113.125-.263,0-.225-.175s.413-2.616.438-2.916c-.213-.463-.838-1.927-1.014-2.19s-.238-.275-.5-.138-.85.349-1.064-.15c-.038-.088-.1-.288.05-.313l-.113-.038a1.074,1.074,0,0,0-.125.125" fill="#fff"/><path d="M26.084,20.033a6.333,6.333,0,0,1-1.351.526c-.334.051-.251.138-.188.388s.25,1,.35,1.264.238.259.5.251a2.6,2.6,0,0,0,1.564-.638,5.129,5.129,0,0,1-.45-1.277c-.075-.35-.075-.713-.426-.513" fill="#fff"/><path d="M18.913,12.811a.344.344,0,0,1-.313.2c-.2,0-.363-.063-.488.113a6.746,6.746,0,0,0-.964,1.527c.15.313.35.876.5,1.276.488-.413,2.046-1.934,2.34-2.227.113-.113.125-.213-.037-.325s-.764-.488-.864-.551-.15-.062-.175-.013" fill="#fff"/><path d="M14.971,15.014a6.263,6.263,0,0,1-.6,1.59c.125.2.225.375.375.438a9.6,9.6,0,0,0,1.2-1.089,2.569,2.569,0,0,0,.425-.638c0-.075-.087-.1-.2-.075s-.576-.16-1.026-.25c-.125-.025-.163-.025-.175.025" fill="#fff"/><path d="M14.7,14.639a2.739,2.739,0,0,1-.776-.813c-.162-.275-.188-.25-.25-.05a3.814,3.814,0,0,1-.463.851c-.162.213-.588.764-.7.889s0,.175.1.275.613.726.726.864.237.388.538.112a3.228,3.228,0,0,0,.826-1.289c.163-.513.175-.782.313-.751l.006-.107-.037-.062-.075-.063a.126.126,0,0,1-.012.131c-.031.05-.132.025-.194.013" fill="#fff"/><path d="M22.355,3.125A4.147,4.147,0,0,1,20.2,4.164a7.546,7.546,0,0,0-2.691,1.477,13.369,13.369,0,0,1-2.19,1.576c-.15.063-.469.275-.063.325.3.038.513-.137,1.164-.613a14.581,14.581,0,0,0,1.652-1.3,5.424,5.424,0,0,1,2.2-1.126,7.037,7.037,0,0,0,2.428-1.014c.163-.175.175-.263.025-.413s-.238-.112-.375.05" fill="#fff"/><path d="M16.611,7.061c-.1.054-.138.112-.251.475s-.1.575-.006.663a.325.325,0,0,0,.219.069c.038,0,.075.013.069-.094a.844.844,0,0,1,.325-.763c.062-.037-.009-.3-.231-.263-.075.012,0-.156-.125-.088" fill="#fff"/><path d="M12.744,8.494c.175,0,.288,0,.275.2s-.1.475-.113.663-.013.263.1.263-.163.113-.313.138-.381.111-.5-.526c-.037-.2-.025-.513-.05-.588a1.515,1.515,0,0,1,.6-.15" fill="#fff"/><path d="M16.07,9.029c.046.252.115.248.065.285s-.1-.1-.306-.063-1.771.276-1.884.288c-.35.037-.369-.019-.044-.088s1.516-.285,1.871-.357" fill="#fff"/><path d="M14.17,28.167a1.346,1.346,0,0,0,1.214-.062c.663-.276,1.4-.088,1.514.388a1.894,1.894,0,0,1-.087,1.352.414.414,0,0,1-.538.138c-.363-.114-1.2-.5-1.439-.613a2.523,2.523,0,0,0-.926-.238,1.185,1.185,0,0,1-.025-.8c.075-.15.075-.3.138-.263s.15.1.15.1" fill="#fff"/><path d="M16.8,30.382a.557.557,0,0,1,.55.363c.075.238.563.3.776.288s.175.1.163.225-.05.5-.05.651a6.911,6.911,0,0,0,.063.776c.025.1-.063.15-.175.2a.906.906,0,0,1-.788-.012c-.138-.1-.3-.238-.138-.25s-.2-1.427-.3-1.677-.388-.563-.1-.563" fill="#fff"/><path d="M12.493,27.429c.068.022.1.088.15.175a.186.186,0,0,1-.013.25,2.654,2.654,0,0,0-.275,1.327.933.933,0,0,0-.375-.038,4.17,4.17,0,0,1,.112-1.414c.125-.275.25-.35.4-.3" fill="#fff"/><path d="M12.518,35.063a4.812,4.812,0,0,0,1.339,1.076,2.054,2.054,0,0,0,1.114.213c.314-.03.25.1,0,.138a2.264,2.264,0,0,1-1.2-.162,3.918,3.918,0,0,1-1.352-1.114c-.088-.125,0-.263.1-.15" fill="#fff"/><path d="M19.038,34.187a7.069,7.069,0,0,1-1.176.463,1.969,1.969,0,0,1,.063.388,2.919,2.919,0,0,0,1.239-.463c.1-.063.138-.138.1-.225s-.088-.225-.225-.163" fill="#fff"/><path d="M16.072,33.16c-.063-.062.294-.138.369-.138a2.611,2.611,0,0,1,.307.257c.038.037.019.063-.019.088a1.337,1.337,0,0,1-.357.087c-.112-.1-.269-.263-.3-.294" fill="#fff"/><path d="M16.736,27.954c-.1-.075-.088-.112-.038-.188a.424.424,0,0,1,.15-.15c.05-.025.125-.038.213.088s.563.914.663,1.126.225.075.175-.05a4.32,4.32,0,0,0-.188-.4,5.768,5.768,0,0,0,.275-1.5,2.76,2.76,0,0,0-.175-1,6.051,6.051,0,0,0,1.364-.088c.288-.087.05-.113-.062-.1a11.077,11.077,0,0,1-1.515-.063,4.12,4.12,0,0,1-2.353-1.1c-.05-.062-.35-.037-.1.163a3.932,3.932,0,0,0,1.827.964c.213.038.55.1.6.876a8.207,8.207,0,0,1-.025,1.352c0,.075-.05.1-.112.012a2.125,2.125,0,0,0-.388-.438.227.227,0,0,0-.288.025,2.394,2.394,0,0,0-.313.3" fill="#fff"/><path d="M14.721,30.4a4.6,4.6,0,0,1-.776,0c-.119-.044-.2-.181-.112-.238.1-.069.294.019.488.019a2.535,2.535,0,0,1,.451-.019c.05.031.119.019.119.256" fill="#fff"/><path d="M13.357,33.836c-.163-.1-.351-.564-.388-1.489a3.357,3.357,0,0,1,.213-1.089c.1-.25-.063-.151-.1-.063a3.579,3.579,0,0,0-.2.7,3.477,3.477,0,0,0,0,1.214c.1.563.15.738.175.838" fill="#fff"/><path d="M18.482,3.1c.023-.061.044-.127.069-.181-.092.048-.179.1-.262.141.055.078.131.2.193.04" fill="#ba9653"/><path d="M18.482,3.1c.023-.061.044-.127.069-.181-.092.048-.179.1-.262.141C18.344,3.138,18.42,3.262,18.482,3.1Z" fill="none" stroke="#ba9653" stroke-width="0.046"/><path d="M20.741,3.225c-.038-.131-.157.075-.313.263a.241.241,0,0,1-.407-.019,1.05,1.05,0,0,0-.207-.382c-.138-.181.132-.431.244-.463a1.425,1.425,0,0,0,.294-.088c.032-.026-.025-.211-.055-.353a9.5,9.5,0,0,0-1.483.6c.147.056.1.343.086.383s-.069.294.044.144.157-.207.275-.244.251-.031.257.144-.075.162-.1.275,0,.106.057.131.094.1.05.219-.231.131-.4.112-.187.006-.131.063a.548.548,0,0,1,.129.25,6.905,6.905,0,0,1,1.663-.519,1.739,1.739,0,0,0,0-.52" fill="#ba9653"/><path d="M20.741,3.225c-.038-.131-.157.075-.313.263a.241.241,0,0,1-.407-.019,1.05,1.05,0,0,0-.207-.382c-.138-.181.132-.431.244-.463a1.425,1.425,0,0,0,.294-.088c.032-.026-.025-.211-.055-.353a9.5,9.5,0,0,0-1.483.6c.147.056.1.343.086.383s-.069.294.044.144.157-.207.275-.244.251-.031.257.144-.075.162-.1.275,0,.106.057.131.094.1.05.219-.231.131-.4.112-.187.006-.131.063a.548.548,0,0,1,.129.25,6.905,6.905,0,0,1,1.663-.519A1.739,1.739,0,0,0,20.741,3.225Z" fill="none" stroke="#ba9653" stroke-width="0.046"/><path d="M16.786,5.7c-.056-.113-.138-.131-.169-.044s-.094.382-.288.463a1.294,1.294,0,0,1-.147.052,1.422,1.422,0,0,0,.228.2c.153-.162.3-.309.434-.446a.593.593,0,0,0-.059-.223" fill="#ba9653"/><path d="M16.786,5.7c-.056-.113-.138-.131-.169-.044s-.094.382-.288.463a1.294,1.294,0,0,1-.147.052,1.422,1.422,0,0,0,.228.2c.153-.162.3-.309.434-.446A.593.593,0,0,0,16.786,5.7Z" fill="none" stroke="#ba9653" stroke-width="0.046"/><path d="M18.657,4.2c-.069-.025-.125.081-.169.156a.312.312,0,0,1-.3.182c-.162-.019-.2-.075-.244-.213a.247.247,0,0,0-.263-.181c-.119,0-.2-.144-.075-.294s.251-.082.35-.082.15-.106.069-.163a.565.565,0,0,1-.2-.271,11.462,11.462,0,0,0-1.315,1,.8.8,0,0,1,.218.053.226.226,0,0,1,.144.213c-.013.112.025.138.094.062s-.013-.3.219-.388.263.088.25.206,0,.232.119.282.256.244-.007.357a3.242,3.242,0,0,1-.513.169c-.106.031-.081.138.006.206a1.288,1.288,0,0,1,.123.114,7.95,7.95,0,0,1,1-.8c.193-.13.37-.247.554-.355.03-.113.041-.222-.06-.258" fill="#ba9653"/><path d="M18.657,4.2c-.069-.025-.125.081-.169.156a.312.312,0,0,1-.3.182c-.162-.019-.2-.075-.244-.213a.247.247,0,0,0-.263-.181c-.119,0-.2-.144-.075-.294s.251-.082.35-.082.15-.106.069-.163a.565.565,0,0,1-.2-.271,11.462,11.462,0,0,0-1.315,1,.8.8,0,0,1,.218.053.226.226,0,0,1,.144.213c-.013.112.025.138.094.062s-.013-.3.219-.388.263.088.25.206,0,.232.119.282.256.244-.007.357a3.242,3.242,0,0,1-.513.169c-.106.031-.081.138.006.206a1.288,1.288,0,0,1,.123.114,7.95,7.95,0,0,1,1-.8c.193-.13.37-.247.554-.355C18.746,4.347,18.757,4.238,18.657,4.2Z" fill="none" stroke="#ba9653" stroke-width="0.046"/><path d="M16.2,5.372a.181.181,0,0,0-.15-.188A.419.419,0,0,1,15.884,5a2.225,2.225,0,0,0-.162.248c.028.084.055.162.082.235.157,0,.395-.012.4-.117" fill="#ba9653"/><path d="M16.2,5.372a.181.181,0,0,0-.15-.188A.419.419,0,0,1,15.884,5a2.225,2.225,0,0,0-.162.248c.028.084.055.162.082.235C15.96,5.485,16.2,5.476,16.2,5.372Z" fill="none" stroke="#ba9653" stroke-width="0.046"/><path d="M21.491,11.21a3.341,3.341,0,0,0-1.363.237c.081.049.168.159.337.1.238-.081.319.169.207.238s-.15.244.062.113.4.056.313.194-.2.031-.175.226-.019.369-.194.4-.213-.232-.294-.213.018.463-.019.469a.633.633,0,0,0-.3.19l.014.01c.689.494.864.225.964-.013a8.794,8.794,0,0,0,.388-1.314,2.251,2.251,0,0,0,.063-.638" fill="#ba9653"/><path d="M21.491,11.21a3.341,3.341,0,0,0-1.363.237c.081.049.168.159.337.1.238-.081.319.169.207.238s-.15.244.062.113.4.056.313.194-.2.031-.175.226-.019.369-.194.4-.213-.232-.294-.213.018.463-.019.469a.633.633,0,0,0-.3.19l.014.01c.689.494.864.225.964-.013a8.794,8.794,0,0,0,.388-1.314A2.251,2.251,0,0,0,21.491,11.21Z" fill="none" stroke="#ba9653" stroke-width="0.046"/><path d="M20,12.574c.038-.093-.062-.175-.169-.106s-.263.169-.369-.012.119-.2.132-.288-.075-.1-.032-.244.2-.1.313-.025c.131.087.093-.12.075-.2a.394.394,0,0,1-.012-.17,3.563,3.563,0,0,0-.4.208c-.643.393-.663.726-.513.851.134.112.409.165.878.47A1.956,1.956,0,0,1,20,12.574" fill="#ba9653"/><path d="M20,12.574c.038-.093-.062-.175-.169-.106s-.263.169-.369-.012.119-.2.132-.288-.075-.1-.032-.244.2-.1.313-.025c.131.087.093-.12.075-.2a.394.394,0,0,1-.012-.17,3.563,3.563,0,0,0-.4.208c-.643.393-.663.726-.513.851.134.112.409.165.878.47A1.956,1.956,0,0,1,20,12.574Z" fill="none" stroke="#ba9653" stroke-width="0.046"/><path d="M17.95,12.2a1.774,1.774,0,0,1-.7-.763s.012-.05-.063-.05a2.829,2.829,0,0,1-.814-.188c-.463-.162-.525-.062-.588.138A4.641,4.641,0,0,0,15.66,12.5c-.012.6.25.976.413.914.079-.031.284-.132.5-.239,0-.119.01-.326.023-.424.019-.144-.131-.088-.194-.013s-.181.2-.294.181-.188-.219-.169-.407-.2-.263-.063-.513.25.062.369.037.056-.088,0-.282.177-.252.325-.113c.094.088.138-.106.275-.081s.219.119.138.256c-.063.106-.106.357.013.225s.237-.213.35-.125.038.269.006.363.2.206.038.319-.344-.081-.438-.056-.112.138.013.225a1.237,1.237,0,0,0,.23.127,3.826,3.826,0,0,0,.665-.322l.163.013c.012-.212,0-.35-.075-.388" fill="#ba9653"/><path d="M17.95,12.2a1.774,1.774,0,0,1-.7-.763s.012-.05-.063-.05a2.829,2.829,0,0,1-.814-.188c-.463-.162-.525-.062-.588.138A4.641,4.641,0,0,0,15.66,12.5c-.012.6.25.976.413.914.079-.031.284-.132.5-.239,0-.119.01-.326.023-.424.019-.144-.131-.088-.194-.013s-.181.2-.294.181-.188-.219-.169-.407-.2-.263-.063-.513.25.062.369.037.056-.088,0-.282.177-.252.325-.113c.094.088.138-.106.275-.081s.219.119.138.256c-.063.106-.106.357.013.225s.237-.213.35-.125.038.269.006.363.2.206.038.319-.344-.081-.438-.056-.112.138.013.225a1.237,1.237,0,0,0,.23.127,3.826,3.826,0,0,0,.665-.322l.163.013C18.037,12.374,18.025,12.236,17.95,12.2Z" fill="none" stroke="#ba9653" stroke-width="0.046"/><path d="M17.024,14.952c-.1-.225-.135-.052-.413.388a9.32,9.32,0,0,1-.94,1.1c.308.062.971.225.577.55-.425.35-.238.325-.05.3s.5.088.263.513a2.352,2.352,0,0,1-.626.864c-.225.138-.551.125-.626-.2s-.288,0-.3.213a4.525,4.525,0,0,0-.013.7l-.475-.025a4.117,4.117,0,0,1,.025-.788c.038-.188.025-.413-.263-.325a.474.474,0,0,1-.384-.029,5.314,5.314,0,0,0-1.031,1.144.586.586,0,0,0,.615.123c.275-.113.726.025.45.451s-.263.638.013.375.718-.715.851-.238c.088.313-.2.414-.188.664s.263.5-.087.8-.5-.213-.738-.138a.257.257,0,0,0-.164.294c.311.441.765,1.064.928,1.332.25.413.25.914.351.839s.337-.3.413-.363a.246.246,0,0,0,.113-.275,5.305,5.305,0,0,1-.138-1.389,4.5,4.5,0,0,1,.526-1.6c.192-.355.776-1.49.913-1.79a6.238,6.238,0,0,0,.451-.926c.062-.275.3-.913.4-1.214a5.517,5.517,0,0,0-.451-1.352" fill="#ba9653"/><path d="M17.024,14.952c-.1-.225-.135-.052-.413.388a9.32,9.32,0,0,1-.94,1.1c.308.062.971.225.577.55-.425.35-.238.325-.05.3s.5.088.263.513a2.352,2.352,0,0,1-.626.864c-.225.138-.551.125-.626-.2s-.288,0-.3.213a4.525,4.525,0,0,0-.013.7l-.475-.025a4.117,4.117,0,0,1,.025-.788c.038-.188.025-.413-.263-.325a.474.474,0,0,1-.384-.029,5.314,5.314,0,0,0-1.031,1.144.586.586,0,0,0,.615.123c.275-.113.726.025.45.451s-.263.638.013.375.718-.715.851-.238c.088.313-.2.414-.188.664s.263.5-.087.8-.5-.213-.738-.138a.257.257,0,0,0-.164.294c.311.441.765,1.064.928,1.332.25.413.25.914.351.839s.337-.3.413-.363a.246.246,0,0,0,.113-.275,5.305,5.305,0,0,1-.138-1.389,4.5,4.5,0,0,1,.526-1.6c.192-.355.776-1.49.913-1.79a6.238,6.238,0,0,0,.451-.926c.062-.275.3-.913.4-1.214A5.517,5.517,0,0,0,17.024,14.952Z" fill="none" stroke="#ba9653" stroke-width="0.046"/><path d="M22.48,20.508a2.424,2.424,0,0,1-.438-1.3,6.459,6.459,0,0,1,.047-1.233c-.1-.008-.227.01-.234.157a2.657,2.657,0,0,1-.2.751c-.075.175-.326.162-.475.175s-.151-.088-.05-.313a.839.839,0,0,0,.113-.525c-.025-.2-.125-.025-.213.15s-.338.526-.626.488-.213-.475-.188-.625-.062-.175-.175-.2-.338-.075-.213-.438.263-.326.438-.263.2-.05.038-.113-.338-.2-.325-.375c.033-.463.325-.425.55-.376a.71.71,0,0,0,.611-.254c0-.011-.007-.023-.01-.034A5.819,5.819,0,0,1,21.6,12.9a21.824,21.824,0,0,1,1.083-2.04c-.125-.063-.457-.231-.638-.326s-.282-.138-.332-.069-.113.106-.2.231c-.176.251-.025.213.025.213s.262.276.3.338,0,.113-.087.313c-.115.262-.188.864-.288,1.227-.3,1.1-.776.989-.989.851s-.275.075-.488.375a4.052,4.052,0,0,1-.346.377c.2.092.48.354.147.612-.388.3-.463.463-.275.425s.375-.325.588-.125-.075.425-.188.488-.338.175-.275.413.1.563-.213.638a.407.407,0,0,1-.526-.225c-.087-.162-.175-.05-.213.15a3.081,3.081,0,0,0-.063.425c0,.075-.225-.037-.325-.138s-.225.175-.338.037.138-.563.225-.713.048-.338-.449-.108a6.974,6.974,0,0,0-.489,1.272,13.851,13.851,0,0,1-1.158,2.4,4.186,4.186,0,0,0-.694,2.747c.1.635.188.588.325.588s.475.425.7.688.313.15.425.063a12.212,12.212,0,0,1,2.115-1.239,13.558,13.558,0,0,1,1.589-.611,4.331,4.331,0,0,1,.088-.627c.025-.125-.1-.163-.225,0s-.463.563-.688.463-.413-.351-.288-.563-.05-.275-.138-.388-.088-.551.188-.589.363.2.55.263.338.05.1-.213-.526-.163-.375-.526.363-.338.613-.263.375-.062.538-.175a.521.521,0,0,1,.713,0c.226.263-.163.5-.25.588-.169.169-.2.488-.013.3s.508-.866.726-.3c.125.325-.113.451-.075.651s.375.476.1.726-.663.037-.826-.113-.338-.225-.263.05a2.339,2.339,0,0,1,.084.547,4.543,4.543,0,0,1,1.267-.222c.357.032.626.138.613-.188s-.187-.55-.513-1.088m-4.443,2.24c-.3.088-.351-.05-.551-.125s-.213.1-.075.313.288.413.125.413-.288.025-.313.15-.288-.025-.35-.288-.125-.764-.263-.513-.263.663-.614.475-.113-.438-.288-.613a.548.548,0,0,1-.163-.713c.175-.313.325-.05.488-.05s.188-.15.038-.262-.338-.651.351-.614a1.244,1.244,0,0,0,.776-.238c.225-.162.813-.075.576.339s-.162.5-.025.35.313-.426.576-.35.15.275-.012.5a.293.293,0,0,0,.062.463c.125.087.356.561-.338.763m1.276-2.953a2.154,2.154,0,0,1-.5-.05,2.749,2.749,0,0,1-.488.926c-.025.038-.162.038-.225-.012s-.238-.138-.1-.288.363-.463.325-.6-.138-.263-.288-.075-.388.576-.651.589-.526-.226-.4-.463.162-.363-.013-.576-.11-.485.263-.651a.5.5,0,0,1,.451.113c.138.113.213,0,.025-.113a.638.638,0,0,1-.363-.5c-.024-.238.125-.488.45-.351a.584.584,0,0,0,.663-.087c.138-.112.724-.253.638.263-.063.375-.238.388-.288.588s.1.075.188-.075.288-.765.7-.3c.1.113.063.3-.062.513a.361.361,0,0,0,.05.451.436.436,0,0,1-.376.7" fill="#ba9653"/><path d="M19.314,19.795a2.154,2.154,0,0,1-.5-.05,2.749,2.749,0,0,1-.488.926c-.025.038-.162.038-.225-.012s-.238-.138-.1-.288.363-.463.325-.6-.138-.263-.288-.075-.388.576-.651.589-.526-.226-.4-.463.162-.363-.013-.576-.11-.485.263-.651a.5.5,0,0,1,.451.113c.138.113.213,0,.025-.113a.638.638,0,0,1-.363-.5c-.024-.238.125-.488.45-.351a.584.584,0,0,0,.663-.087c.138-.112.724-.253.638.263-.063.375-.238.388-.288.588s.1.075.188-.075.288-.765.7-.3c.1.113.063.3-.062.513a.361.361,0,0,0,.05.451A.436.436,0,0,1,19.314,19.795Z" fill="none" stroke="#ba9653" stroke-width="0.046"/><path d="M18.037,22.748c-.3.088-.351-.05-.551-.125s-.213.1-.075.313.288.413.125.413-.288.025-.313.15-.288-.025-.35-.288-.125-.764-.263-.513-.263.663-.614.475-.113-.438-.288-.613a.548.548,0,0,1-.163-.713c.175-.313.325-.05.488-.05s.188-.15.038-.262-.338-.651.351-.614a1.244,1.244,0,0,0,.776-.238c.225-.162.813-.075.576.339s-.162.5-.025.35.313-.426.576-.35.15.275-.012.5a.293.293,0,0,0,.062.463C18.5,22.072,18.731,22.546,18.037,22.748Z" fill="none" stroke="#ba9653" stroke-width="0.046"/><path d="M22.48,20.508a2.424,2.424,0,0,1-.438-1.3,6.459,6.459,0,0,1,.047-1.233c-.1-.008-.227.01-.234.157a2.657,2.657,0,0,1-.2.751c-.075.175-.326.162-.475.175s-.151-.088-.05-.313a.839.839,0,0,0,.113-.525c-.025-.2-.125-.025-.213.15s-.338.526-.626.488-.213-.475-.188-.625-.062-.175-.175-.2-.338-.075-.213-.438.263-.326.438-.263.2-.05.038-.113-.338-.2-.325-.375c.033-.464.325-.425.55-.376a.71.71,0,0,0,.611-.254c0-.011-.007-.023-.01-.034A5.819,5.819,0,0,1,21.6,12.9a21.84,21.84,0,0,1,1.083-2.04c-.125-.063-.457-.231-.638-.326s-.282-.138-.332-.069-.113.106-.2.231c-.176.251-.025.213.025.213s.262.276.3.338,0,.113-.087.313c-.115.262-.188.864-.288,1.226-.3,1.1-.776.989-.989.851s-.275.075-.488.375a4.052,4.052,0,0,1-.346.377c.2.092.48.354.147.612-.388.3-.463.463-.275.425s.375-.325.588-.125-.075.425-.188.488-.338.175-.275.413.1.563-.213.638a.407.407,0,0,1-.526-.225c-.087-.162-.175-.05-.213.15a3.081,3.081,0,0,0-.063.425c0,.075-.225-.037-.325-.138s-.225.175-.338.037.138-.563.225-.713.048-.338-.449-.108a6.974,6.974,0,0,0-.489,1.272,13.851,13.851,0,0,1-1.158,2.4,4.186,4.186,0,0,0-.694,2.747c.1.635.188.588.325.588s.475.425.7.688.313.15.425.063a12.212,12.212,0,0,1,2.115-1.239,13.558,13.558,0,0,1,1.589-.611,4.331,4.331,0,0,1,.088-.627c.025-.125-.1-.163-.225,0s-.463.563-.688.463-.413-.351-.288-.563-.05-.275-.138-.388-.088-.551.188-.589.363.2.55.263.338.05.1-.213-.526-.163-.375-.526.363-.338.613-.263.375-.062.538-.175a.521.521,0,0,1,.713,0c.226.263-.163.5-.25.588-.169.169-.2.488-.013.3s.508-.866.726-.3c.125.325-.113.451-.075.651s.375.476.1.726-.663.037-.826-.113-.338-.225-.263.05a2.339,2.339,0,0,1,.084.547,4.543,4.543,0,0,1,1.267-.222c.357.032.626.138.613-.188S22.806,21.046,22.48,20.508Z" fill="none" stroke="#ba9653" stroke-width="0.046"/><path d="M19.082,3.951c.169.019.357.006.4-.112s.006-.194-.05-.219-.081-.019-.057-.131.106-.1.1-.275-.138-.182-.257-.144-.163.094-.275.244-.063-.1-.044-.144.063-.329-.091-.381c-.088.044-.173.087-.256.13-.028.055-.048.119-.073.183-.063.163-.139.04-.194-.037h0c-.167.092-.313.179-.424.252l-.038.025a.528.528,0,0,0,.2.269c.081.056.031.163-.069.163s-.225-.069-.35.082-.044.294.075.294a.247.247,0,0,1,.263.181c.044.138.081.194.244.213a.313.313,0,0,0,.3-.182c.044-.075.1-.181.169-.156.1.037.089.144.058.259.118-.069.237-.134.366-.2a.529.529,0,0,0-.13-.25c-.056-.056-.037-.081.132-.063" fill="#008248"/><path d="M19.082,3.951c.169.019.357.006.4-.112s.006-.194-.05-.219-.081-.019-.057-.131.106-.1.1-.275-.138-.182-.257-.144-.163.094-.275.244-.063-.1-.044-.144.063-.329-.091-.381c-.088.044-.173.087-.256.13-.028.055-.048.119-.073.183-.063.163-.139.04-.194-.037h0c-.167.092-.313.179-.424.252l-.038.025a.528.528,0,0,0,.2.269c.081.056.031.163-.069.163s-.225-.069-.35.082-.044.294.075.294a.247.247,0,0,1,.263.181c.044.138.081.194.244.213a.313.313,0,0,0,.3-.182c.044-.075.1-.181.169-.156.1.037.089.144.058.259.118-.069.237-.134.366-.2a.529.529,0,0,0-.13-.25C18.895,3.957,18.913,3.933,19.082,3.951Z" fill="none" stroke="#00a55c" stroke-width="0.046"/><path d="M20.478,2.137c-.058.013-.118.03-.181.047.03.143.088.327.056.353a1.427,1.427,0,0,1-.294.088c-.113.031-.382.282-.244.463a1.057,1.057,0,0,1,.207.382.241.241,0,0,0,.406.019c.156-.188.276-.394.313-.263a1.72,1.72,0,0,1,0,.521l.1-.02a2.407,2.407,0,0,0-.363-1.589" fill="#008248"/><path d="M20.478,2.137c-.058.013-.118.03-.181.047.03.143.088.327.056.353a1.427,1.427,0,0,1-.294.088c-.113.031-.382.282-.244.463a1.057,1.057,0,0,1,.207.382.241.241,0,0,0,.406.019c.156-.188.276-.394.313-.263a1.72,1.72,0,0,1,0,.521l.1-.02A2.407,2.407,0,0,0,20.478,2.137Z" fill="none" stroke="#00a55c" stroke-width="0.046"/><path d="M17.042,5.5c-.087-.069-.113-.175-.006-.206a3.242,3.242,0,0,0,.513-.169c.263-.113.125-.307.007-.357s-.132-.162-.119-.282-.019-.294-.25-.206-.15.313-.219.388-.106.05-.094-.062a.226.226,0,0,0-.144-.213.817.817,0,0,0-.222-.049,4.705,4.705,0,0,0-.625.667.407.407,0,0,0,.171.177.181.181,0,0,1,.15.188c-.005.106-.244.113-.4.117a1.968,1.968,0,0,0,.38.681,1.317,1.317,0,0,0,.146-.053c.194-.081.257-.375.288-.463s.113-.069.169.044a.578.578,0,0,1,.059.223c.111-.11.218-.213.323-.311a1.313,1.313,0,0,0-.126-.112" fill="#008248"/><path d="M17.042,5.5c-.087-.069-.113-.175-.006-.206a3.242,3.242,0,0,0,.513-.169c.263-.113.125-.307.007-.357s-.132-.162-.119-.282-.019-.294-.25-.206-.15.313-.219.388-.106.05-.094-.062a.226.226,0,0,0-.144-.213.817.817,0,0,0-.222-.049,4.705,4.705,0,0,0-.625.667.407.407,0,0,0,.171.177.181.181,0,0,1,.15.188c-.005.106-.244.113-.4.117a1.968,1.968,0,0,0,.38.681,1.317,1.317,0,0,0,.146-.053c.194-.081.257-.375.288-.463s.113-.069.169.044a.578.578,0,0,1,.059.223c.111-.11.218-.213.323-.311A1.313,1.313,0,0,0,17.042,5.5Z" fill="none" stroke="#00a55c" stroke-width="0.046"/><path d="M20.365,12.974c.037-.006-.062-.45.019-.469s.118.244.294.213.219-.206.194-.4.088-.088.175-.225-.1-.325-.313-.194-.175-.044-.062-.113.031-.319-.207-.238c-.172.059-.259-.052-.341-.1-.063.025-.126.051-.189.079a.361.361,0,0,0,.011.171c.018.08.056.288-.075.2-.114-.076-.269-.119-.313.025s.044.156.032.244-.238.106-.132.288.263.081.369.012.206.013.169.106a1.922,1.922,0,0,0-.093.482c.05.033.1.068.158.107a.633.633,0,0,1,.3-.189" fill="#008248"/><path d="M20.365,12.974c.037-.006-.062-.45.019-.469s.118.244.294.213.219-.206.194-.4.088-.088.175-.225-.1-.325-.313-.194-.175-.044-.062-.113.031-.319-.207-.238c-.172.059-.259-.052-.341-.1-.063.025-.126.051-.189.079a.361.361,0,0,0,.011.171c.018.08.056.288-.075.2-.114-.076-.269-.119-.313.025s.044.156.032.244-.238.106-.132.288.263.081.369.012.206.013.169.106a1.922,1.922,0,0,0-.093.482c.05.033.1.068.158.107A.633.633,0,0,1,20.365,12.974Z" fill="none" stroke="#00a55c" stroke-width="0.046"/><path d="M16.955,12.543c.094-.025.276.169.438.056s-.069-.225-.038-.319.106-.275-.006-.363-.232-.006-.35.125-.076-.119-.013-.225c.081-.137,0-.231-.138-.256s-.181.169-.275.081c-.149-.139-.382-.081-.325.113s.119.256,0,.282-.231-.288-.369-.037.081.325.063.513.056.388.169.407.231-.107.294-.181.213-.131.194.013c-.013.1-.02.306-.023.424a6.644,6.644,0,0,1,.611-.274l.017-.006a1.176,1.176,0,0,1-.236-.125c-.125-.088-.106-.2-.013-.226" fill="#008248"/><path d="M16.955,12.543c.094-.025.276.169.438.056s-.069-.225-.038-.319.106-.275-.006-.363-.232-.006-.35.125-.076-.119-.013-.225c.081-.137,0-.231-.138-.256s-.181.169-.275.081c-.149-.139-.382-.081-.325.113s.119.256,0,.282-.231-.288-.369-.037.081.325.063.513.056.388.169.407.231-.107.294-.181.213-.131.194.013c-.013.1-.02.306-.023.424a6.644,6.644,0,0,1,.611-.274l.017-.006a1.176,1.176,0,0,1-.236-.125C16.842,12.68,16.861,12.568,16.955,12.543Z" fill="none" stroke="#00a55c" stroke-width="0.046"/><path d="M14.183,18.243c.288-.087.3.138.263.325a4.117,4.117,0,0,0-.025.788l.475.025a4.525,4.525,0,0,1,.013-.7c.013-.213.225-.538.3-.213s.4.338.626.2a2.35,2.35,0,0,0,.626-.864c.238-.425-.075-.538-.263-.513s-.375.05.05-.3c.4-.326-.27-.49-.576-.551-.5.529-1.124,1.129-1.676,1.6-.07.06-.136.118-.2.174a.479.479,0,0,0,.387.026" fill="#008248"/><path d="M14.183,18.243c.288-.087.3.138.263.325a4.117,4.117,0,0,0-.025.788l.475.025a4.525,4.525,0,0,1,.013-.7c.013-.213.225-.538.3-.213s.4.338.626.2a2.35,2.35,0,0,0,.626-.864c.238-.425-.075-.538-.263-.513s-.375.05.05-.3c.4-.326-.27-.49-.576-.551-.5.529-1.124,1.129-1.676,1.6-.07.06-.136.118-.2.174A.479.479,0,0,0,14.183,18.243Z" fill="none" stroke="#00a55c" stroke-width="0.046"/><path d="M13.682,21.4c.238-.076.388.437.738.138s.1-.551.087-.8.275-.35.188-.664c-.133-.476-.576-.025-.851.238s-.288.05-.013-.376-.175-.563-.45-.451a.579.579,0,0,1-.613-.126,5.051,5.051,0,0,0-.263.489c-.238.488-.075.5.1.5s.551.738.6.876a4.689,4.689,0,0,0,.316.477.258.258,0,0,1,.16-.3" fill="#008248"/><path d="M13.682,21.4c.238-.076.388.437.738.138s.1-.551.087-.8.275-.35.188-.664c-.133-.476-.576-.025-.851.238s-.288.05-.013-.376-.175-.563-.45-.451a.579.579,0,0,1-.613-.126,5.051,5.051,0,0,0-.263.489c-.238.488-.075.5.1.5s.551.738.6.876a4.689,4.689,0,0,0,.316.477A.258.258,0,0,1,13.682,21.4Z" fill="none" stroke="#00a55c" stroke-width="0.046"/><path d="M17.349,18.093c-.024-.238.125-.488.45-.351a.584.584,0,0,0,.663-.087c.138-.112.724-.253.638.263-.063.375-.238.388-.288.588s.1.075.188-.075.288-.765.7-.3c.1.113.063.3-.062.513a.361.361,0,0,0,.05.451.436.436,0,0,1-.375.7,2.154,2.154,0,0,1-.5-.05,2.749,2.749,0,0,1-.488.926c-.025.038-.162.038-.225-.012s-.238-.138-.1-.288.363-.463.325-.6-.138-.263-.288-.075-.388.576-.651.588-.526-.226-.4-.463.162-.363-.013-.576-.11-.485.263-.651a.5.5,0,0,1,.451.113c.138.113.213,0,.025-.113a.638.638,0,0,1-.363-.5" fill="#008248"/><path d="M17.349,18.093c-.024-.238.125-.488.45-.351a.584.584,0,0,0,.663-.087c.138-.112.724-.253.638.263-.063.375-.238.388-.288.588s.1.075.188-.075.288-.765.7-.3c.1.113.063.3-.062.513a.361.361,0,0,0,.05.451.436.436,0,0,1-.375.7,2.154,2.154,0,0,1-.5-.05,2.749,2.749,0,0,1-.488.926c-.025.038-.162.038-.225-.012s-.238-.138-.1-.288.363-.463.325-.6-.138-.263-.288-.075-.388.576-.651.588-.526-.226-.4-.463.162-.363-.013-.576-.11-.485.263-.651a.5.5,0,0,1,.451.113c.138.113.213,0,.025-.113A.638.638,0,0,1,17.349,18.093Z" fill="none" stroke="#00a55c" stroke-width="0.046"/><path d="M20.528,16.466c-.225-.05-.518-.088-.551.376-.013.175.162.313.325.375s.137.175-.038.113-.312-.1-.438.263.1.413.213.438.2.05.175.2-.1.588.188.625.539-.313.626-.488.188-.35.213-.15a.839.839,0,0,1-.113.525c-.1.225-.1.326.05.313s.4,0,.475-.175a2.657,2.657,0,0,0,.2-.751c.008-.149.138-.165.234-.157.029-.254.067-.5.1-.719-.491.074-.909-.526-1.055-1.046a.7.7,0,0,1-.609.257" fill="#008248"/><path d="M20.528,16.466c-.225-.05-.518-.088-.551.376-.013.175.162.313.325.375s.137.175-.038.113-.312-.1-.438.263.1.413.213.438.2.05.175.2-.1.588.188.625.539-.313.626-.488.188-.35.213-.15a.839.839,0,0,1-.113.525c-.1.225-.1.326.05.313s.4,0,.475-.175a2.657,2.657,0,0,0,.2-.751c.008-.149.138-.165.234-.157.029-.254.067-.5.1-.719-.491.074-.909-.526-1.055-1.046A.7.7,0,0,1,20.528,16.466Z" fill="none" stroke="#00a55c" stroke-width="0.046"/><path d="M18.187,16.378c-.088.15-.338.576-.225.713s.238-.138.338-.038.325.213.325.138a3.077,3.077,0,0,1,.063-.425c.037-.2.125-.313.213-.15a.407.407,0,0,0,.526.225c.313-.075.275-.4.213-.638s.162-.351.275-.413.4-.288.188-.488-.4.088-.588.125S19.4,15.3,19.79,15c.334-.259.054-.519-.15-.609-.539.542-1.493,1.422-1.7,1.622a1.186,1.186,0,0,0-.2.258c.5-.235.534-.037.451.1" fill="#008248"/><path d="M18.187,16.378c-.088.15-.338.576-.225.713s.238-.138.338-.038.325.213.325.138a3.077,3.077,0,0,1,.063-.425c.037-.2.125-.313.213-.15a.407.407,0,0,0,.526.225c.313-.075.275-.4.213-.638s.162-.351.275-.413.4-.288.188-.488-.4.088-.588.125S19.4,15.3,19.79,15c.334-.259.054-.519-.15-.609-.539.542-1.493,1.422-1.7,1.622a1.186,1.186,0,0,0-.2.258C18.24,16.039,18.27,16.236,18.187,16.378Z" fill="none" stroke="#00a55c" stroke-width="0.046"/><path d="M21.291,21.409c.163.15.551.363.826.113s-.062-.525-.1-.726.2-.326.075-.651c-.218-.566-.538.112-.726.3s-.156-.131.013-.3c.087-.088.476-.326.25-.589a.521.521,0,0,0-.713,0c-.163.113-.288.25-.538.175s-.463-.1-.613.263.138.263.375.526.088.275-.1.213-.275-.3-.55-.263-.276.476-.188.589.263.175.138.388.062.463.288.563.563-.3.688-.463.25-.125.225,0a4.231,4.231,0,0,0-.088.627c.191-.061.379-.117.56-.167a2.33,2.33,0,0,0-.085-.547c-.075-.276.1-.2.263-.051" fill="#008248"/><path d="M21.291,21.409c.163.15.551.363.826.113s-.062-.525-.1-.726.2-.326.075-.651c-.218-.566-.538.112-.726.3s-.156-.131.013-.3c.087-.088.476-.326.25-.589a.521.521,0,0,0-.713,0c-.163.113-.288.25-.538.175s-.463-.1-.613.263.138.263.375.526.088.275-.1.213-.275-.3-.55-.263-.276.476-.188.589.263.175.138.388.062.463.288.563.563-.3.688-.463.25-.125.225,0a4.231,4.231,0,0,0-.088.627c.191-.061.379-.117.56-.167a2.33,2.33,0,0,0-.085-.547C20.953,21.184,21.128,21.259,21.291,21.409Z" fill="none" stroke="#00a55c" stroke-width="0.046"/><path d="M16.423,20.921a1.244,1.244,0,0,0,.776-.238c.225-.162.813-.075.576.339s-.162.5-.025.35.313-.426.576-.35.15.275-.012.5a.293.293,0,0,0,.062.463c.125.087.356.561-.338.763-.3.088-.351-.05-.551-.125s-.213.1-.075.313.288.413.125.413-.288.025-.313.15-.288-.025-.35-.288-.125-.764-.263-.513-.263.663-.614.476-.113-.438-.288-.613a.548.548,0,0,1-.163-.713c.175-.313.325-.05.488-.05s.188-.15.038-.263-.338-.651.351-.614" fill="#008248"/><path d="M16.423,20.921a1.244,1.244,0,0,0,.776-.238c.225-.162.813-.075.576.339s-.162.5-.025.35.313-.426.576-.35.15.275-.012.5a.293.293,0,0,0,.062.463c.125.087.356.561-.338.763-.3.088-.351-.05-.551-.125s-.213.1-.075.313.288.413.125.413-.288.025-.313.15-.288-.025-.35-.288-.125-.764-.263-.513-.263.663-.614.476-.113-.438-.288-.613a.548.548,0,0,1-.163-.713c.175-.313.325-.05.488-.05s.188-.15.038-.263S15.735,20.884,16.423,20.921Z" fill="none" stroke="#00a55c" stroke-width="0.046"/><path d="M18.9,12.161c-.075.2-.175.451-.225.576s-.281.077-.263-.013c.038-.188-.23-.063-.2-.213.025-.125-.025-.325.112-.325s.4-.025.576-.025" fill="#ba9653"/><path d="M18.9,12.161c-.075.2-.175.451-.225.576s-.281.077-.263-.013c.038-.188-.23-.063-.2-.213.025-.125-.025-.325.112-.325S18.726,12.161,18.9,12.161Z" fill="none" stroke="#ba9653" stroke-width="0.046"/><path d="M18.482,3.1c.023-.061.044-.127.069-.181-.092.048-.179.1-.262.141.055.078.131.2.193.04" fill="#ba9653"/><path d="M20.741,3.225c-.038-.131-.157.075-.313.263a.241.241,0,0,1-.407-.019,1.05,1.05,0,0,0-.207-.382c-.138-.181.132-.431.244-.463a1.425,1.425,0,0,0,.294-.088c.032-.026-.025-.211-.055-.353a9.5,9.5,0,0,0-1.483.6c.147.056.1.343.086.383s-.069.294.044.144.157-.207.275-.244.251-.031.257.144-.075.162-.1.275,0,.106.057.131.094.1.05.219-.231.131-.4.112-.187.006-.131.063a.548.548,0,0,1,.129.25,6.905,6.905,0,0,1,1.663-.519,1.739,1.739,0,0,0,0-.52" fill="#ba9653"/><path d="M16.786,5.7c-.056-.113-.138-.131-.169-.044s-.094.382-.288.463a1.294,1.294,0,0,1-.147.052,1.422,1.422,0,0,0,.228.2c.153-.162.3-.309.434-.446a.593.593,0,0,0-.059-.223" fill="#ba9653"/><path d="M18.657,4.2c-.069-.025-.125.081-.169.156a.312.312,0,0,1-.3.182c-.162-.019-.2-.075-.244-.213a.247.247,0,0,0-.263-.181c-.119,0-.2-.144-.075-.294s.251-.082.35-.082.15-.106.069-.163a.565.565,0,0,1-.2-.271,11.462,11.462,0,0,0-1.315,1,.8.8,0,0,1,.218.053.226.226,0,0,1,.144.213c-.013.112.025.138.094.062s-.013-.3.219-.388.263.088.25.206,0,.232.119.282.256.244-.007.357a3.242,3.242,0,0,1-.513.169c-.106.031-.081.138.006.206a1.288,1.288,0,0,1,.123.114,7.95,7.95,0,0,1,1-.8c.193-.13.37-.247.554-.355.03-.113.041-.222-.06-.258" fill="#ba9653"/><path d="M16.2,5.372a.181.181,0,0,0-.15-.188A.419.419,0,0,1,15.884,5a2.225,2.225,0,0,0-.162.248c.028.084.055.162.082.235.157,0,.395-.012.4-.117" fill="#ba9653"/><path d="M21.491,11.21a3.341,3.341,0,0,0-1.363.237c.081.049.168.159.337.1.238-.081.319.169.207.238s-.15.244.062.113.4.056.313.194-.2.031-.175.226-.019.369-.194.4-.213-.232-.294-.213.018.463-.019.469a.633.633,0,0,0-.3.19l.014.01c.689.494.864.225.964-.013a8.794,8.794,0,0,0,.388-1.314,2.251,2.251,0,0,0,.063-.638" fill="#ba9653"/><path d="M20,12.574c.038-.093-.062-.175-.169-.106s-.263.169-.369-.012.119-.2.132-.288-.075-.1-.032-.244.2-.1.313-.025c.131.087.093-.12.075-.2a.394.394,0,0,1-.012-.17,3.563,3.563,0,0,0-.4.208c-.643.393-.663.726-.513.851.134.112.409.165.878.47A1.956,1.956,0,0,1,20,12.574" fill="#ba9653"/><path d="M17.95,12.2a1.774,1.774,0,0,1-.7-.763s.012-.05-.063-.05a2.829,2.829,0,0,1-.814-.188c-.463-.162-.525-.062-.588.138A4.641,4.641,0,0,0,15.66,12.5c-.012.6.25.976.413.914.079-.031.284-.132.5-.239,0-.119.01-.326.023-.424.019-.144-.131-.088-.194-.013s-.181.2-.294.181-.188-.219-.169-.407-.2-.263-.063-.513.25.062.369.037.056-.088,0-.282.177-.252.325-.113c.094.088.138-.106.275-.081s.219.119.138.256c-.063.106-.106.357.013.225s.237-.213.35-.125.038.269.006.363.2.206.038.319-.344-.081-.438-.056-.112.138.013.225a1.237,1.237,0,0,0,.23.127,3.826,3.826,0,0,0,.665-.322l.163.013c.012-.212,0-.35-.075-.388" fill="#ba9653"/><path d="M17.024,14.952c-.1-.225-.135-.052-.413.388a9.32,9.32,0,0,1-.94,1.1c.308.062.971.225.577.55-.425.35-.238.325-.05.3s.5.088.263.513a2.352,2.352,0,0,1-.626.864c-.225.138-.551.125-.626-.2s-.288,0-.3.213a4.525,4.525,0,0,0-.013.7l-.475-.025a4.117,4.117,0,0,1,.025-.788c.038-.188.025-.413-.263-.325a.474.474,0,0,1-.384-.029,5.314,5.314,0,0,0-1.031,1.144.586.586,0,0,0,.615.123c.275-.113.726.025.45.451s-.263.638.013.375.718-.715.851-.238c.088.313-.2.414-.188.664s.263.5-.087.8-.5-.213-.738-.138a.257.257,0,0,0-.164.294c.311.441.765,1.064.928,1.332.25.413.25.914.351.839s.337-.3.413-.363a.246.246,0,0,0,.113-.275,5.305,5.305,0,0,1-.138-1.389,4.5,4.5,0,0,1,.526-1.6c.192-.355.776-1.49.913-1.79a6.238,6.238,0,0,0,.451-.926c.062-.275.3-.913.4-1.214a5.517,5.517,0,0,0-.451-1.352" fill="#ba9653"/><path d="M22.48,20.508a2.424,2.424,0,0,1-.438-1.3,6.459,6.459,0,0,1,.047-1.233c-.1-.008-.227.01-.234.157a2.657,2.657,0,0,1-.2.751c-.075.175-.326.162-.475.175s-.151-.088-.05-.313a.839.839,0,0,0,.113-.525c-.025-.2-.125-.025-.213.15s-.338.526-.626.488-.213-.475-.188-.625-.062-.175-.175-.2-.338-.075-.213-.438.263-.326.438-.263.2-.05.038-.113-.338-.2-.325-.375c.033-.463.325-.425.55-.376a.71.71,0,0,0,.611-.254c0-.011-.007-.023-.01-.034A5.819,5.819,0,0,1,21.6,12.9a21.824,21.824,0,0,1,1.083-2.04c-.125-.063-.457-.231-.638-.326s-.282-.138-.332-.069-.113.106-.2.231c-.176.251-.025.213.025.213s.262.276.3.338,0,.113-.087.313c-.115.262-.188.864-.288,1.227-.3,1.1-.776.989-.989.851s-.275.075-.488.375a4.052,4.052,0,0,1-.346.377c.2.092.48.354.147.612-.388.3-.463.463-.275.425s.375-.325.588-.125-.075.425-.188.488-.338.175-.275.413.1.563-.213.638a.407.407,0,0,1-.526-.225c-.087-.162-.175-.05-.213.15a3.081,3.081,0,0,0-.063.425c0,.075-.225-.037-.325-.138s-.225.175-.338.037.138-.563.225-.713.048-.338-.449-.108a6.974,6.974,0,0,0-.489,1.272,13.851,13.851,0,0,1-1.158,2.4,4.186,4.186,0,0,0-.694,2.747c.1.635.188.588.325.588s.475.425.7.688.313.15.425.063a12.212,12.212,0,0,1,2.115-1.239,13.558,13.558,0,0,1,1.589-.611,4.331,4.331,0,0,1,.088-.627c.025-.125-.1-.163-.225,0s-.463.563-.688.463-.413-.351-.288-.563-.05-.275-.138-.388-.088-.551.188-.589.363.2.55.263.338.05.1-.213-.526-.163-.375-.526.363-.338.613-.263.375-.062.538-.175a.521.521,0,0,1,.713,0c.226.263-.163.5-.25.588-.169.169-.2.488-.013.3s.508-.866.726-.3c.125.325-.113.451-.075.651s.375.476.1.726-.663.037-.826-.113-.338-.225-.263.05a2.339,2.339,0,0,1,.084.547,4.543,4.543,0,0,1,1.267-.222c.357.032.626.138.613-.188s-.187-.55-.513-1.088m-4.443,2.24c-.3.088-.351-.05-.551-.125s-.213.1-.075.313.288.413.125.413-.288.025-.313.15-.288-.025-.35-.288-.125-.764-.263-.513-.263.663-.614.475-.113-.438-.288-.613a.548.548,0,0,1-.163-.713c.175-.313.325-.05.488-.05s.188-.15.038-.262-.338-.651.351-.614a1.244,1.244,0,0,0,.776-.238c.225-.162.813-.075.576.339s-.162.5-.025.35.313-.426.576-.35.15.275-.012.5a.293.293,0,0,0,.062.463c.125.087.356.561-.338.763m1.276-2.953a2.154,2.154,0,0,1-.5-.05,2.749,2.749,0,0,1-.488.926c-.025.038-.162.038-.225-.012s-.238-.138-.1-.288.363-.463.325-.6-.138-.263-.288-.075-.388.576-.651.589-.526-.226-.4-.463.162-.363-.013-.576-.11-.485.263-.651a.5.5,0,0,1,.451.113c.138.113.213,0,.025-.113a.638.638,0,0,1-.363-.5c-.024-.238.125-.488.45-.351a.584.584,0,0,0,.663-.087c.138-.112.724-.253.638.263-.063.375-.238.388-.288.588s.1.075.188-.075.288-.765.7-.3c.1.113.063.3-.062.513a.361.361,0,0,0,.05.451.436.436,0,0,1-.376.7" fill="#ba9653"/><path d="M30.832,9.064l-.371.263.853,1.205-.488.346L30,9.647l-.382.271.758,1.147-.488.346L28.663,9.672,30.88,8.1l1.348,1.89-.488.346" fill="#fff"/><path d="M31.444,12.77l.5,1.085-.725.336-.783-1.765,2.4-1.043.308.679" fill="#fff"/><path d="M31.726,16.006l-.075-.669,1.61-.189-.063-.973.721-.054.2,2.34-.721.053-.063-.7" fill="#fff"/><path d="M31.742,18.418l-.01-.8,2.367-.007.01.8" fill="#fff"/><path d="M32.991,21.655a.679.679,0,0,0,.353-.5.783.783,0,0,0-.626-.971.757.757,0,0,0-.9.558.9.9,0,0,0,.02.584l-.625.209a2.074,2.074,0,0,1-.077-.9,1.236,1.236,0,0,1,.511-.858,1.55,1.55,0,0,1,1.195-.239,1.282,1.282,0,0,1,.912.609,1.5,1.5,0,0,1,.229,1.127,1.433,1.433,0,0,1-.606.841" fill="#fff"/><path d="M31.752,23.728a3.349,3.349,0,0,1-1.236.77c-.324.03-.424-.152-.478-.439a1.917,1.917,0,0,1,.1-.87,1.66,1.66,0,0,1,.49-.675l.391.174a1.175,1.175,0,0,0-.436.627c-.061.18-.116.456.065.517.2.068.639-.373.765-.493.217-.209.667-.572,1-.487a1.056,1.056,0,0,1,.466,1.254,1.709,1.709,0,0,1-.4.858l-.534-.359a1.279,1.279,0,0,0,.3-.584c.048-.142.057-.367-.076-.44-.082-.045-.238-.026-.421.146" fill="#fff"/><path d="M28.827,7.246a.683.683,0,0,0-.259-.546.805.805,0,0,0-1.149.172.782.782,0,0,0,.139,1.048.9.9,0,0,0,.541.222l-.067.656a2.064,2.064,0,0,1-.848-.3,1.231,1.231,0,0,1-.571-.819,1.55,1.55,0,0,1,.273-1.187,1.523,1.523,0,0,1,1-.618,1.336,1.336,0,0,1,1.1.3,1.728,1.728,0,0,1,.455.967" fill="#fff"/><path d="M4.662,20.59c.012-.7.358-1.046.553-1.087a.679.679,0,0,1,.7.177,1.213,1.213,0,0,1,.39.727,1.61,1.61,0,0,1,0,.814l-.5.052a1.054,1.054,0,0,0-.025-.713c-.04-.187-.163-.368-.35-.329s-.184.368-.2.547c-.056.574-.244.947-.6.986-.334.036-.746-.186-.89-.866a2.523,2.523,0,0,1,.041-1.028l.528,0a1.805,1.805,0,0,0-.09.79c.031.146.143.326.294.318.119-.006.151-.26.153-.391" fill="#fff"/><path d="M6.031,17.3l.009.587-1.869.023.008.846-.6.007-.024-2.23.6-.007.007.8" fill="#fff"/><path d="M7.371,10.674,5.764,9.666l.356-.554L8.474,10.47l-.456.7-1.91.032,0,.007,1.443.832-.356.629L4.874,11.328l.306-.591" fill="#fff"/><path d="M3.763,14.163A1.447,1.447,0,1,1,5.21,15.61a1.447,1.447,0,0,1-1.447-1.446m1.447.754a.754.754,0,1,0-.753-.754.753.753,0,0,0,.753.754" fill="#fff"/><path d="M4.7,23.68a1.447,1.447,0,1,1,1.447,1.447A1.447,1.447,0,0,1,4.7,23.68m1.447.754a.753.753,0,1,0-.754-.754.754.754,0,0,0,.754.754" fill="#fff"/><path d="M7.763,26.314a.817.817,0,0,1,.12-.981c.449-.4,1.2.516,1.476.859l.778.9L8.215,28.685l-.723-.714c-.518-.518-1.15-1.171-.629-1.623a.972.972,0,0,1,.9-.034m1.493.416-.062-.075c-.144-.174-.657-.825-.86-.633-.223.21.316.78.476.972l.05.06Zm-.928.783c-.071-.085-.642-.781-.874-.564s.326.677.517.906Z" fill="#fff"/></g></g></svg>